{
.appVersion = "3342";
.formatVersion = 3;
DisplayStrings = (
OHamburgefonstiv,
OHamburgefonstiv
);
date = "2025-02-16 11:19:15 +0000";
familyName = OHamburgC;
featurePrefixes = (
{
automatic = 1;
code = "languagesystem DFLT dflt;
";
name = Languagesystems;
}
);
fontMaster = (
{
customParameters = (
{
name = unitizerUnit;
value = 6.38055;
}
);
iconName = SemiLight_SemiCondensed;
id = m003;
metricValues = (
{
over = 11;
pos = 637;
},
{
over = 11;
pos = 616;
},
{
over = 11;
pos = 402;
},
{
over = -8;
},
{
over = -8;
pos = -230;
},
{
pos = 17;
},
{
}
);
name = Italic;
stemValues = (
28,
81
);
userData = {
GSCornerRadius = 25;
GSOffsetHorizontal = 2;
GSOffsetVertical = 2;
};
}
);
glyphs = (
{
glyphname = A;
lastChange = "2025-02-18 21:22:07 +0000";
layers = (
{
anchors = (
{
name = bottom;
pos = (280,0);
},
{
name = ogonek;
pos = (557,10);
},
{
name = top;
pos = (468,616);
}
);
color = 4;
layerId = m003;
shapes = (
{
closed = 1;
nodes = (
(608,0,l),
(614,25,l),
(547,39,o),
(532,64,o),
(518,135,cs),
(490,306,o),
(462,477,o),
(434,648,c),
(377,576,l),
(364,550,l),
(426,139,ls),
(441,42,o),
(430,43,o),
(344,25,c),
(338,0,l)
);
},
{
closed = 1;
nodes = (
(194,0,l),
(200,25,l),
(126,31,o),
(104,57,o),
(148,130,cs),
(407,564,l),
(377,576,l),
(272,404,o),
(157,198,o),
(68,83,cs),
(41,49,o),
(-8,25,o),
(-52,25,c),
(-58,0,l)
);
},
{
closed = 1;
nodes = (
(452,258,l),
(447,298,l),
(224,298,l),
(198,258,l)
);
}
);
width = 681;
}
);
unicode = 65;
},
{
glyphname = B;
lastChange = "2025-02-18 21:22:07 +0000";
layers = (
{
anchors = (
{
name = bottom;
pos = (238,0);
},
{
name = center;
pos = (134,154);
},
{
name = top;
pos = (426,616);
}
);
color = 2;
guides = (
{
angle = 270;
pos = (-17,13);
}
);
layerId = m003;
shapes = (
{
closed = 1;
nodes = (
(-17,0,l),
(274,0,l),
(283,40,l),
(238,40,o),
(196,34,o),
(181,50,cs),
(173,58,o),
(167,73,o),
(171,91,cs),
(221,307,o),
(237,377,o),
(283,574,c),
(300,576,o),
(364,576,o),
(387,576,c),
(396,616,l),
(125,616,l),
(119,591,l),
(154,586,o),
(177,582,o),
(189,572,cs),
(197,565,o),
(199,552,o),
(193,525,cs),
(152,341,o),
(132,253,o),
(146,312,cs),
(160,373,o),
(138,282,o),
(93,91,cs),
(87,65,o),
(78,51,o),
(67,43,cs),
(48,29,o),
(22,31,o),
(-11,25,c)
);
},
{
closed = 1;
nodes = (
(215,318,o),
(227,318,o),
(255,318,cs),
(417,318,o),
(534,378,o),
(558,481,cs),
(576,560,o),
(509,616,o),
(396,616,c),
(387,576,l),
(448,576,o),
(480,529,o),
(465,462,cs),
(447,387,o),
(369,348,o),
(255,348,cs),
(195,348,l),
(189,318,l)
);
},
{
closed = 1;
nodes = (
(399,0,o),
(505,79,o),
(531,191,cs),
(552,280,o),
(479,333,o),
(359,338,cs),
(177,346,l),
(169,314,l),
(191,314,o),
(203,314,o),
(240,314,cs),
(375,314,o),
(457,263,o),
(435,171,cs),
(418,94,o),
(353,40,o),
(283,40,c),
(274,0,l)
);
}
);
width = 598;
}
);
metricLeft = H;
unicode = 66;
},
{
glyphname = C;
lastChange = "2025-02-18 21:22:07 +0000";
layers = (
{
anchors = (
{
name = bottom;
pos = (277,0);
},
{
name = top;
pos = (465,616);
}
);
background = {
shapes = (
{
closed = 1;
nodes = (
(338,588,l),
(434,588,o),
(504,528,o),
(509,444,c),
(540,444,l),
(542,495,o),
(549,558,o),
(556,595,c),
(506,614,o),
(412,627,o),
(330,627,c)
);
}
);
};
backgroundImage = {
imagePath = "../../Desktop/Bildschirmfoto 2024-12-24 um 08.52.09.png";
pos = (634,-952);
scale = (-1.4,1.4);
};
color = 4;
layerId = m003;
shapes = (
{
closed = 1;
nodes = (
(403,-11,o),
(501,9,o),
(564,38,c),
(597,106,o),
(629,174,o),
(639,201,c),
(603,200,l),
(557,102,o),
(435,33,o),
(337,33,cs),
(183,33,o),
(112,158,o),
(153,335,cs),
(187,482,o),
(330,588,o),
(479,588,cs),
(577,588,o),
(634,528,o),
(619,444,c),
(650,444,l),
(662,489,o),
(683,551,o),
(700,595,c),
(655,614,o),
(562,627,o),
(476,627,cs),
(269,627,o),
(96,496,o),
(53,312,cs),
(9,123,o),
(121,-11,o),
(328,-11,cs)
);
}
);
width = 675;
},
{
anchors = (
{
name = bottom;
pos = (408,0);
},
{
name = top;
pos = (407,616);
}
);
associatedMasterId = m003;
background = {
shapes = (
{
closed = 1;
nodes = (
(418,588,l),
(514,588,o),
(584,528,o),
(589,444,c),
(620,444,l),
(622,495,o),
(629,558,o),
(636,595,c),
(586,614,o),
(492,627,o),
(410,627,c)
);
}
);
};
backgroundImage = {
imagePath = "../../Desktop/Bildschirmfoto 2024-12-24 um 08.52.09.png";
pos = (714,-952);
scale = (-1.4,1.4);
};
color = 4;
layerId = "A8205263-60D0-4B63-B521-8F6B441CF343";
name = "11. Jan. 25, 13:19";
shapes = (
{
closed = 1;
nodes = (
(479,-11,o),
(572,9,o),
(628,38,c),
(646,106,o),
(662,174,o),
(666,201,c),
(630,200,l),
(606,102,o),
(520,33,o),
(422,33,cs),
(268,33,o),
(156,158,o),
(156,335,cs),
(156,482,o),
(265,586,o),
(414,586,cs),
(506,586,o),
(582,522,o),
(597,432,c),
(637,432,l),
(634,599,l),
(584,573,l),
(551,605,o),
(477,627,o),
(404,627,cs),
(197,627,o),
(54,496,o),
(54,312,cs),
(54,123,o),
(197,-11,o),
(404,-11,cs)
);
}
);
width = 720;
}
);
metricLeft = O;
metricRight = H;
unicode = 67;
},
{
glyphname = D;
lastChange = "2025-02-18 21:22:07 +0000";
layers = (
{
anchors = (
{
name = bottom;
pos = (299,0);
},
{
name = center;
pos = (211,308);
},
{
name = top;
pos = (487,616);
}
);
background = {
shapes = (
{
closed = 1;
nodes = (
(-22,0,l),
(261,0,l),
(261,40,l),
(216,40,o),
(181,38,o),
(162,54,cs),
(153,62,o),
(148,73,o),
(148,91,cs),
(146,307,o),
(145,377,o),
(149,574,c),
(166,576,o),
(218,576,o),
(241,576,c),
(241,616,l),
(-22,616,l),
(-22,591,l),
(12,581,o),
(36,582,o),
(50,572,cs),
(60,565,o),
(65,552,o),
(65,525,cs),
(66,341,o),
(67,253,o),
(67,312,cs),
(67,373,o),
(66,282,o),
(65,91,cs),
(65,65,o),
(59,51,o),
(50,43,cs),
(34,29,o),
(8,31,o),
(-22,25,c)
);
}
);
};
backgroundImage = {
imagePath = "../../Desktop/Bildschirmfoto 2024-12-24 um 13.06.05.png";
pos = (717,-1011);
scale = (-1.4,1.4);
};
color = 2;
layerId = m003;
shapes = (
{
closed = 1;
nodes = (
(-17,0,l),
(6,0,o),
(68,0,o),
(110,0,cs),
(110,0,o),
(151,1,o),
(268,-3,c),
(272,38,l),
(220,38,o),
(200,33,o),
(182,55,cs),
(175,63,o),
(172,74,o),
(176,91,cs),
(199,189,o),
(265,476,o),
(289,574,c),
(335,577,o),
(387,578,o),
(433,578,c),
(439,619,l),
(358,618,o),
(295,616,o),
(255,616,c),
(209,616,o),
(156,616,o),
(125,616,c),
(119,590,l),
(156,583,o),
(178,582,o),
(189,572,cs),
(198,565,o),
(199,552,o),
(193,525,cs),
(168,411,o),
(149,323,o),
(146,312,cs),
(144,302,o),
(121,210,o),
(93,91,cs),
(87,66,o),
(79,52,o),
(67,43,cs),
(50,31,o),
(25,30,o),
(-11,25,c)
);
},
{
closed = 1;
nodes = (
(268,-3,l),
(470,-2,o),
(644,135,o),
(688,327,cs),
(728,498,o),
(625,619,o),
(439,619,c),
(433,578,l),
(574,578,o),
(627,462,o),
(589,298,cs),
(554,146,o),
(411,38,o),
(272,38,c)
);
}
);
width = 719;
}
);
metricLeft = H;
metricRight = O;
unicode = 68;
},
{
glyphname = E;
lastChange = "2025-02-18 21:22:07 +0000";
layers = (
{
anchors = (
{
name = bottom;
pos = (224,0);
},
{
name = ogonek;
pos = (457,10);
},
{
name = top;
pos = (412,616);
},
{
name = topleft;
pos = (144,616);
}
);
color = 2;
guides = (
{
angle = 77.035;
lockAngle = 1;
pos = (57,-67);
}
);
layerId = m003;
shapes = (
{
closed = 1;
nodes = (
(9,-1,o),
(57,0,o),
(102,0,c),
(245,0,o),
(403,-1,o),
(479,-3,c),
(502,44,o),
(527,110,o),
(540,157,c),
(511,157,l),
(484,90,o),
(434,43,o),
(390,40,cs),
(358,38,o),
(294,37,o),
(237,37,cs),
(203,37,o),
(188,42,o),
(179,52,cs),
(171,62,o),
(172,76,o),
(176,96,cs),
(215,265,o),
(249,416,o),
(288,576,c),
(325,578,o),
(354,578,o),
(376,578,cs),
(404,578,o),
(439,578,o),
(471,576,cs),
(496,574,o),
(512,544,o),
(509,499,c),
(543,499,l),
(553,536,o),
(569,586,o),
(584,619,c),
(518,617,o),
(375,616,o),
(254,616,c),
(205,616,o),
(153,617,o),
(125,618,c),
(118,589,l),
(152,584,o),
(175,581,o),
(187,567,cs),
(194,558,o),
(197,544,o),
(191,521,c),
(92,91,l),
(86,67,o),
(78,52,o),
(66,42,cs),
(49,29,o),
(25,26,o),
(-13,23,c),
(-18,-2,l)
);
},
{
closed = 1;
nodes = (
(410,206,l),
(420,272,o),
(441,364,o),
(461,430,c),
(435,430,l),
(433,424,o),
(425,410,o),
(416,396,c),
(391,360,o),
(363,336,o),
(303,336,cs),
(173,336,l),
(163,296,l),
(293,296,ls),
(360,296,o),
(377,274,o),
(382,242,cs),
(385,206,l)
);
}
);
width = 570;
}
);
metricLeft = H;
metricRight = H;
unicode = 69;
},
{
glyphname = F;
lastChange = "2025-02-18 21:22:07 +0000";
layers = (
{
anchors = (
{
name = bottom;
pos = (196,0);
},
{
name = top;
pos = (384,616);
}
);
background = {
shapes = (
{
closed = 1;
nodes = (
(-24,0,l),
(259,0,l),
(259,40,l),
(214,40,o),
(179,38,o),
(160,54,cs),
(151,62,o),
(146,73,o),
(146,91,cs),
(144,307,o),
(143,377,o),
(147,574,c),
(164,576,o),
(216,576,o),
(239,576,c),
(239,616,l),
(-24,616,l),
(-24,591,l),
(10,581,o),
(34,582,o),
(48,572,cs),
(58,565,o),
(63,552,o),
(63,525,cs),
(64,341,o),
(65,253,o),
(65,312,cs),
(65,373,o),
(64,282,o),
(63,91,cs),
(63,65,o),
(57,51,o),
(48,43,cs),
(32,29,o),
(6,31,o),
(-24,25,c)
);
}
);
};
color = 2;
layerId = m003;
shapes = (
{
closed = 1;
nodes = (
(8,0,o),
(214,0,o),
(269,0,c),
(276,29,l),
(225,35,o),
(192,35,o),
(178,54,cs),
(172,64,o),
(170,79,o),
(176,103,cs),
(210,260,o),
(248,421,o),
(287,578,c),
(309,579,o),
(358,580,o),
(380,580,cs),
(408,580,o),
(430,580,o),
(461,578,cs),
(486,576,o),
(501,544,o),
(498,499,c),
(530,499,l),
(541,536,o),
(559,586,o),
(574,619,c),
(508,617,o),
(373,616,o),
(253,616,c),
(204,616,o),
(153,617,o),
(125,618,c),
(119,592,l),
(152,586,o),
(175,584,o),
(187,572,cs),
(194,563,o),
(197,550,o),
(191,525,cs),
(160,380,o),
(126,236,o),
(91,91,cs),
(85,67,o),
(78,53,o),
(67,44,cs),
(51,30,o),
(27,27,o),
(-14,23,c),
(-19,-1,l)
);
},
{
closed = 1;
nodes = (
(404,206,l),
(413,272,o),
(434,364,o),
(455,430,c),
(430,430,l),
(428,424,o),
(420,410,o),
(411,396,c),
(386,360,o),
(358,336,o),
(316,336,cs),
(182,336,l),
(172,296,l),
(306,296,ls),
(355,296,o),
(372,274,o),
(377,242,cs),
(380,206,l)
);
}
);
width = 514;
}
);
metricLeft = H;
metricRight = O;
unicode = 70;
},
{
glyphname = G;
lastChange = "2025-02-18 21:22:07 +0000";
layers = (
{
anchors = (
{
name = bottom;
pos = (290,0);
},
{
name = top;
pos = (478,616);
}
);
backgroundImage = {
imagePath = "../../Desktop/Bildschirmfoto 2024-12-23 um 19.38.00.png";
pos = (635,-876);
scale = (-1.37,1.3692);
};
color = 3;
layerId = m003;
shapes = (
{
closed = 1;
nodes = (
(412,-11,o),
(519,11,o),
(581,43,c),
(580,56,l),
(562,57,o),
(554,67,o),
(557,79,c),
(585,200,l),
(591,225,o),
(609,247,o),
(633,252,c),
(671,258,l),
(677,287,l),
(425,287,l),
(417,253,l),
(468,244,o),
(508,225,o),
(499,188,c),
(474,76,l),
(469,55,o),
(409,33,o),
(364,33,cs),
(182,33,o),
(109,141,o),
(153,333,cs),
(187,482,o),
(326,588,o),
(481,588,cs),
(577,588,o),
(633,528,o),
(619,444,c),
(650,444,l),
(663,495,o),
(685,558,o),
(700,595,c),
(655,614,o),
(564,627,o),
(482,627,cs),
(277,627,o),
(95,495,o),
(52,308,cs),
(9,121,o),
(127,-11,o),
(328,-11,cs)
);
}
);
width = 702;
}
);
metricLeft = O;
metricRight = O;
unicode = 71;
},
{
glyphname = H;
lastChange = "2025-02-18 21:22:07 +0000";
layers = (
{
anchors = (
{
name = bottom;
pos = (329,0);
},
{
name = center;
pos = (470,462);
},
{
name = top;
pos = (517,616);
},
{
name = topleft;
pos = (144,616);
}
);
background = {
shapes = (
{
closed = 1;
nodes = (
(138,609,l,{
"Letterink-NibData" = {
AngleInDegrees = "0";
};
}),
(134,616,l,{
"Letterink-NibData" = {
AngleInDegrees = "360";
};
}),
(65,576,l),
(65,7,l,{
"Letterink-NibData" = {
AngleInDegrees = "360";
};
}),
(69,0,l,{
"Letterink-NibData" = {
AngleInDegrees = "360";
};
}),
(138,40,l),
(138,304,l),
(552,304,l),
(552,7,l,{
"Letterink-NibData" = {
AngleInDegrees = "360";
};
}),
(556,0,l,{
"Letterink-NibData" = {
AngleInDegrees = "360";
};
}),
(626,40,l),
(626,609,l,{
"Letterink-NibData" = {
AngleInDegrees = "0";
};
}),
(622,616,l,{
"Letterink-NibData" = {
AngleInDegrees = "359.99999";
};
}),
(552,576,l),
(552,351,l),
(138,351,l)
);
},
{
closed = 0;
nodes = (
(210,616,l),
(210,591,l),
(182,583,o),
(164,576,o),
(153,564,cs),
(144,553,o),
(140,538,o),
(140,512,cs)
);
}
);
};
color = 1;
layerId = m003;
shapes = (
{
closed = 1;
nodes = (
(73,2,o),
(163,2,o),
(253,0,c),
(259,25,l),
(230,33,o),
(188,39,o),
(180,51,cs),
(172,61,o),
(171,77,o),
(177,104,cs),
(193,178,o),
(210,252,o),
(226,326,cs),
(240,388,o),
(256,450,o),
(271,512,cs),
(277,539,o),
(287,556,o),
(298,565,cs),
(312,577,o),
(357,583,o),
(389,591,c),
(395,616,l),
(305,614,o),
(215,614,o),
(125,616,c),
(119,591,l),
(140,583,o),
(181,576,o),
(189,564,cs),
(196,553,o),
(196,538,o),
(190,512,cs),
(177,450,o),
(164,389,o),
(149,327,cs),
(132,253,o),
(114,178,o),
(96,104,cs),
(90,78,o),
(83,63,o),
(71,52,cs),
(57,40,o),
(13,33,o),
(-11,25,c),
(-17,0,l)
);
},
{
closed = 1;
nodes = (
(523,2,o),
(613,2,o),
(703,0,c),
(709,25,l),
(690,33,o),
(649,39,o),
(641,51,cs),
(633,61,o),
(632,77,o),
(638,104,cs),
(654,179,o),
(672,255,o),
(688,330,cs),
(701,391,o),
(717,451,o),
(732,512,cs),
(738,539,o),
(746,554,o),
(759,565,cs),
(773,577,o),
(817,583,o),
(839,591,c),
(845,616,l),
(755,614,o),
(665,614,o),
(575,616,c),
(569,591,l),
(600,583,o),
(642,576,o),
(650,564,cs),
(657,553,o),
(657,538,o),
(651,512,cs),
(638,451,o),
(625,390,o),
(611,329,cs),
(594,254,o),
(575,179,o),
(557,104,cs),
(551,78,o),
(544,63,o),
(532,52,cs),
(518,40,o),
(473,33,o),
(439,25,c),
(433,0,l)
);
},
{
closed = 1;
nodes = (
(636,304,l),
(647,349,l),
(200,349,l),
(189,304,l)
);
}
);
width = 780;
}
);
note = H;
unicode = 72;
},
{
glyphname = I;
lastChange = "2025-02-18 21:22:07 +0000";
layers = (
{
anchors = (
{
name = bottom;
pos = (95,0);
},
{
name = ogonek;
pos = (225,10);
},
{
name = top;
pos = (283,616);
},
{
name = topleft;
pos = (144,616);
}
);
color = 1;
layerId = m003;
shapes = (
{
closed = 1;
nodes = (
(-17,0,l),
(235,0,l),
(241,25,l),
(203,31,o),
(180,32,o),
(170,41,cs),
(161,49,o),
(161,63,o),
(167,91,c),
(267,525,l),
(274,555,o),
(287,570,o),
(303,577,cs),
(322,586,o),
(346,586,o),
(371,591,c),
(377,616,l),
(125,616,l),
(120,593,l),
(156,587,o),
(179,586,o),
(190,575,cs),
(198,566,o),
(199,552,o),
(193,525,c),
(93,91,l),
(86,62,o),
(79,47,o),
(67,39,cs),
(49,27,o),
(25,30,o),
(-11,25,c)
);
}
);
width = 312;
}
);
metricLeft = H;
metricRight = H;
note = I;
unicode = 73;
},
{
glyphname = J;
lastChange = "2025-02-18 21:22:07 +0000";
layers = (
{
anchors = (
{
name = bottom;
pos = (80,0);
},
{
name = top;
pos = (268,616);
}
);
color = 1;
layerId = m003;
shapes = (
{
closed = 1;
nodes = (
(-55,-232,o),
(10,-190,o),
(34,-164,cs),
(97,-96,o),
(159,29,o),
(184,148,cs),
(227,341,o),
(225,332,o),
(271,525,cs),
(278,555,o),
(286,569,o),
(301,577,cs),
(317,584,o),
(340,585,o),
(375,591,c),
(381,616,l),
(129,616,l),
(123,591,l),
(158,587,o),
(181,586,o),
(194,574,cs),
(202,565,o),
(204,551,o),
(198,525,cs),
(96,81,ls),
(85,33,o),
(56,-90,o),
(14,-138,cs),
(4,-150,o),
(-7,-157,o),
(-19,-157,cs),
(-38,-158,o),
(-35,-135,o),
(-54,-134,cs),
(-87,-134,o),
(-117,-163,o),
(-126,-205,cs),
(-130,-220,o),
(-115,-232,o),
(-89,-232,cs)
);
}
);
width = 282;
}
);
metricLeft = H;
metricRight = H;
unicode = 74;
},
{
glyphname = K;
lastChange = "2025-02-18 21:22:07 +0000";
layers = (
{
anchors = (
{
name = bottom;
pos = (255,0);
},
{
name = top;
pos = (443,616);
}
);
background = {
shapes = (
{
closed = 0;
nodes = (
(429,91,l),
(429,55,o),
(423,41,o),
(402,31,cs),
(391,26,o),
(373,25,o),
(346,18,c),
(346,0,l),
(591,0,l),
(591,18,l),
(545,31,o),
(522,33,o),
(513,51,cs),
(509,60,o),
(507,73,o),
(507,91,c)
);
},
{
closed = 0;
nodes = (
(451,525,l),
(451,561,o),
(457,575,o),
(478,585,cs),
(489,590,o),
(507,591,o),
(534,598,c),
(534,616,l),
(289,616,l),
(289,598,l),
(335,585,o),
(358,583,o),
(367,565,cs),
(371,556,o),
(373,543,o),
(373,525,cs)
);
}
);
};
color = 2;
layerId = m003;
shapes = (
{
closed = 1;
nodes = (
(-17,0,l),
(235,0,l),
(239,18,l),
(206,27,o),
(187,29,o),
(177,36,cs),
(167,44,o),
(162,58,o),
(170,91,cs),
(184,156,o),
(247,424,o),
(271,525,cs),
(278,556,o),
(288,572,o),
(303,581,cs),
(318,590,o),
(340,594,o),
(373,598,c),
(377,616,l),
(125,616,l),
(120,592,l),
(169,585,o),
(192,583,o),
(196,565,cs),
(198,556,o),
(197,543,o),
(193,525,cs),
(162,382,o),
(128,234,o),
(93,91,cs),
(87,66,o),
(79,52,o),
(67,44,cs),
(51,33,o),
(27,33,o),
(-11,25,c)
);
},
{
closed = 1;
nodes = (
(498,503,l),
(543,540,o),
(596,574,o),
(626,586,cs),
(642,592,o),
(673,597,o),
(679,598,c),
(683,616,l),
(449,616,l),
(445,598,l),
(468,593,o),
(489,580,o),
(484,557,cs),
(480,543,o),
(467,526,o),
(445,505,c),
(165,267,l),
(181,240,l)
);
},
{
closed = 1;
nodes = (
(599,18,l),
(540,34,o),
(512,48,o),
(474,99,c),
(300,362,l),
(227,301,l),
(280,217,o),
(375,72,o),
(396,40,cs),
(418,8,o),
(441,-4,o),
(484,-3,cs),
(595,0,l)
);
}
);
width = 632;
}
);
metricLeft = H;
unicode = 75;
},
{
glyphname = L;
lastChange = "2025-02-18 21:22:07 +0000";
layers = (
{
anchors = (
{
name = bottom;
pos = (241,0);
},
{
name = center;
pos = (335,308);
},
{
name = top;
pos = (429,616);
},
{
name = topright;
pos = (713,616);
}
);
color = 2;
layerId = m003;
shapes = (
{
closed = 1;
nodes = (
(-20,-3,l),
(71,-1,o),
(151,0,o),
(231,0,c),
(240,41,l),
(179,43,o),
(162,43,o),
(176,105,cs),
(204,234,o),
(222,318,o),
(271,517,cs),
(280,553,o),
(285,567,o),
(308,577,cs),
(320,582,o),
(339,585,o),
(369,588,c),
(375,616,l),
(125,616,l),
(120,592,l),
(154,587,o),
(176,585,o),
(187,576,cs),
(196,568,o),
(197,554,o),
(191,525,cs),
(161,382,o),
(126,234,o),
(90,91,cs),
(83,63,o),
(76,49,o),
(64,40,cs),
(49,30,o),
(27,29,o),
(-14,23,c)
);
},
{
closed = 1;
nodes = (
(293,2,o),
(404,1,o),
(472,-3,c),
(533,102,o),
(580,177,o),
(580,177,c),
(556,189,l),
(494,98,o),
(402,47,o),
(329,45,c),
(285,44,o),
(261,41,o),
(240,41,c),
(231,0,l)
);
}
);
width = 603;
}
);
metricLeft = H;
metricRight = H;
unicode = 76;
},
{
glyphname = M;
lastChange = "2025-02-18 21:22:07 +0000";
layers = (
{
anchors = (
{
name = bottom;
pos = (374,0);
},
{
name = top;
pos = (562,616);
}
);
backgroundImage = {
imagePath = "../../Desktop/Bildschirmfoto 2024-12-24 um 15.40.08.png";
pos = (787,-1015);
scale = (-1.3983,1.4017);
};
color = 1;
layerId = m003;
shapes = (
{
closed = 1;
nodes = (
(784,586,l),
(761,616,l),
(391,107,l),
(411,117,l),
(302,616,l),
(125,616,l),
(119,591,l),
(167,587,ls),
(195,584,o),
(220,565,o),
(226,540,cs),
(348,-16,l)
);
},
{
closed = 1;
nodes = (
(199,0,l),
(205,25,l),
(171,33,o),
(124,40,o),
(116,52,cs),
(110,63,o),
(108,79,o),
(115,105,cs),
(241,561,l),
(207,591,l),
(75,105,ls),
(68,78,o),
(59,60,o),
(48,51,cs),
(34,39,o),
(-4,33,o),
(-29,25,c),
(-35,0,l)
);
},
{
closed = 1;
nodes = (
(793,0,l),
(799,25,l),
(761,33,o),
(738,41,o),
(731,51,cs),
(720,65,o),
(725,82,o),
(730,104,cs),
(754,216,o),
(795,401,o),
(824,529,cs),
(828,544,o),
(834,556,o),
(846,566,cs),
(860,578,o),
(880,586,o),
(911,591,c),
(917,616,l),
(761,616,l),
(650,104,ls),
(644,80,o),
(641,63,o),
(625,50,cs),
(605,34,o),
(566,27,o),
(547,25,c),
(541,0,l)
);
}
);
width = 870;
}
);
metricLeft = H;
metricRight = H;
unicode = 77;
},
{
glyphname = N;
lastChange = "2025-02-18 21:22:07 +0000";
layers = (
{
anchors = (
{
name = bottom;
pos = (309,0);
},
{
name = top;
pos = (497,616);
}
);
color = 1;
layerId = m003;
shapes = (
{
closed = 1;
nodes = (
(610,-11,l),
(649,157,o),
(715,443,o),
(731,512,c),
(691,512,l),
(595,97,l),
(617,106,l),
(256,616,l),
(125,616,l),
(119,591,l),
(142,587,o),
(161,579,o),
(172,566,cs),
(187,548,o),
(213,514,o),
(213,514,c),
(584,-11,l)
);
},
{
closed = 1;
nodes = (
(217,0,l),
(223,25,l),
(187,28,o),
(148,35,o),
(138,52,cs),
(129,68,o),
(131,78,o),
(137,104,c),
(97,104,l),
(91,77,o),
(87,65,o),
(70,51,cs),
(49,34,o),
(12,33,o),
(-11,25,c),
(-17,0,l)
);
},
{
closed = 1;
nodes = (
(137,104,l),
(243,561,l),
(209,591,l),
(97,104,l)
);
},
{
closed = 1;
nodes = (
(731,512,l),
(738,542,o),
(747,558,o),
(761,567,cs),
(775,577,o),
(796,581,o),
(821,588,c),
(827,616,l),
(611,616,l),
(605,591,l),
(650,584,o),
(676,582,o),
(688,568,cs),
(697,557,o),
(698,541,o),
(691,512,c)
);
}
);
width = 739;
}
);
metricLeft = H;
metricRight = H;
unicode = 78;
},
{
glyphname = O;
lastChange = "2025-02-18 21:22:07 +0000";
layers = (
{
anchors = (
{
name = bottom;
pos = (307,0);
},
{
name = center;
pos = (401,308);
},
{
name = ogonek;
pos = (607,10);
},
{
name = top;
pos = (495,616);
},
{
name = topleft;
pos = (144,616);
},
{
name = topright;
pos = (846,616);
}
);
background = {
shapes = (
{
closed = 1;
nodes = (
(566,111,o),
(621,209,o),
(624,323,c,{
"Letterink-NibData" = {
AngleInDegrees = "359.99999";
};
}),
(621,395,o),
(610,434,o),
(580,483,cs,{
"Letterink-NibData" = {
AngleInDegrees = "0";
};
}),
(519,582,o),
(433,633,o),
(329,633,cs),
(280,633,o),
(232,621,o),
(191,597,cs,{
"Letterink-NibData" = {
AngleInDegrees = "359.99999";
};
}),
(121,557,ls,{
"Letterink-NibData" = {
AngleInDegrees = "359.99999";
};
}),
(95,542,o),
(43,495,o),
(26,471,cs,{
"Letterink-NibData" = {
AngleInDegrees = "360";
};
}),
(-14,415,o),
(-32,359,o),
(-32,290,cs),
(-32,121,o),
(103,-21,o),
(263,-21,cs),
(312,-21,o),
(364,-7,o),
(408,19,cs,{
"Letterink-NibData" = {
AngleInDegrees = "360";
};
}),
(477,59,ls,{
"Letterink-NibData" = {
AngleInDegrees = "0";
};
})
);
},
{
closed = 1;
nodes = (
(402,32,o),
(370,26,o),
(329,26,cs),
(255,26,o),
(172,61,o),
(127,111,cs,{
"Letterink-NibData" = {
AngleInDegrees = "360";
};
}),
(115,123,o),
(102,141,o),
(82,168,c,{
"Letterink-NibData" = {
AngleInDegrees = "359.99999";
};
}),
(51,236,o),
(41,271,o),
(41,323,cs),
(41,425,o),
(79,501,o),
(163,566,c,{
"Letterink-NibData" = {
AngleInDegrees = "0";
};
}),
(205,583,o),
(221,586,o),
(263,586,cs),
(368,586,o),
(449,538,o),
(513,438,c,{
"Letterink-NibData" = {
AngleInDegrees = "359.99999";
};
}),
(540,389,o),
(551,347,o),
(551,289,cs,{
"Letterink-NibData" = {
AngleInDegrees = "359.99999";
};
}),
(549,192,o),
(506,102,o),
(435,47,c,{
"Letterink-NibData" = {
AngleInDegrees = "0";
};
})
);
}
);
};
color = 4;
layerId = m003;
shapes = (
{
closed = 1;
nodes = (
(494,-11,o),
(657,121,o),
(700,308,cs),
(743,494,o),
(642,626,o),
(447,626,cs),
(264,626,o),
(95,494,o),
(52,308,cs),
(9,121,o),
(116,-11,o),
(299,-11,cs)
);
},
{
closed = 1;
nodes = (
(186,474,o),
(323,585,o),
(440,585,cs),
(589,585,o),
(641,466,o),
(602,298,cs),
(566,141,o),
(435,30,o),
(306,30,cs),
(170,30,o),
(111,149,o),
(150,318,cs)
);
}
);
width = 736;
}
);
note = O;
unicode = 79;
},
{
glyphname = P;
lastChange = "2025-02-18 21:22:07 +0000";
layers = (
{
anchors = (
{
name = bottom;
pos = (212,0);
},
{
name = top;
pos = (400,616);
}
);
background = {
anchors = (
{
name = bottom;
pos = (255,0);
},
{
name = center;
pos = (113,154);
},
{
name = top;
pos = (255,616);
}
);
shapes = (
{
closed = 1;
nodes = (
(-5,0,l),
(278,0,l),
(278,40,l),
(233,40,o),
(198,38,o),
(179,54,cs),
(170,62,o),
(165,73,o),
(165,91,cs),
(163,307,o),
(162,377,o),
(166,574,c),
(183,576,o),
(235,576,o),
(258,576,c),
(258,616,l),
(-5,616,l),
(-5,591,l),
(29,581,o),
(53,582,o),
(67,572,cs),
(77,565,o),
(82,552,o),
(82,525,cs),
(83,341,o),
(84,253,o),
(84,312,cs),
(84,373,o),
(83,282,o),
(82,91,cs),
(82,65,o),
(76,51,o),
(67,43,cs),
(51,29,o),
(25,31,o),
(-5,25,c)
);
},
{
closed = 1;
nodes = (
(152,318,o),
(164,318,o),
(192,318,cs),
(348,318,o),
(451,378,o),
(451,481,cs),
(451,560,o),
(371,616,o),
(258,616,c),
(258,576,l),
(319,576,o),
(362,529,o),
(362,462,cs),
(362,387,o),
(293,348,o),
(185,348,cs),
(125,348,l),
(126,318,l)
);
}
);
};
color = 2;
layerId = m003;
shapes = (
{
closed = 1;
nodes = (
(276,271,o),
(286,271,o),
(296,271,cs),
(425,271,o),
(528,337,o),
(553,448,cs),
(577,552,o),
(516,620,o),
(404,618,c),
(377,584,l),
(451,584,o),
(486,528,o),
(465,436,cs),
(444,346,o),
(369,295,o),
(270,295,c),
(265,272,l)
);
},
{
closed = 1;
nodes = (
(270,0,l),
(276,25,l),
(227,36,o),
(207,39,o),
(198,51,cs),
(190,61,o),
(191,78,o),
(198,111,cs),
(213,188,o),
(257,379,o),
(308,583,c),
(377,584,l),
(404,618,l),
(364,617,o),
(303,616,o),
(271,616,c),
(232,616,o),
(167,617,o),
(125,618,c),
(118,587,l),
(161,580,o),
(190,576,o),
(202,556,cs),
(210,545,o),
(212,531,o),
(206,507,cs),
(176,369,o),
(145,235,o),
(112,101,cs),
(106,75,o),
(99,60,o),
(87,49,cs),
(73,35,o),
(30,30,o),
(6,25,c),
(0,0,l)
);
}
);
width = 546;
}
);
metricLeft = H;
metricRight = O;
unicode = 80;
},
{
glyphname = Q;
lastChange = "2025-02-18 21:22:07 +0000";
layers = (
{
anchors = (
{
name = bottom;
pos = (307,0);
},
{
name = top;
pos = (495,616);
}
);
background = {
shapes = (
{
closed = 1;
nodes = (
(487,-11,o),
(622,121,o),
(622,308,cs),
(622,494,o),
(487,626,o),
(296,626,cs),
(107,626,o),
(-26,494,o),
(-26,308,cs),
(-26,121,o),
(107,-11,o),
(296,-11,cs)
);
},
{
closed = 1;
nodes = (
(70,471,o),
(157,585,o),
(279,585,cs),
(424,585,o),
(526,463,o),
(526,298,cs),
(526,144,o),
(438,30,o),
(313,30,cs),
(171,30,o),
(70,152,o),
(70,318,cs)
);
},
{
closed = 1;
nodes = (
(487,-11,o),
(622,121,o),
(622,308,cs),
(622,494,o),
(487,626,o),
(296,626,cs),
(107,626,o),
(-26,494,o),
(-26,308,cs),
(-26,121,o),
(107,-11,o),
(296,-11,cs)
);
},
{
closed = 1;
nodes = (
(70,471,o),
(157,585,o),
(279,585,cs),
(424,585,o),
(526,463,o),
(526,298,cs),
(526,144,o),
(438,30,o),
(313,30,cs),
(171,30,o),
(70,152,o),
(70,318,cs)
);
}
);
};
backgroundImage = {
imagePath = "../../Desktop/Bildschirmfoto 2024-12-24 um 15.25.09.png";
pos = (885,-1126);
scale = (-1.4,1.4);
};
color = 4;
layerId = m003;
shapes = (
{
closed = 1;
nodes = (
(493,-11,o),
(657,121,o),
(700,308,cs),
(743,494,o),
(641,626,o),
(453,626,cs),
(261,626,o),
(95,494,o),
(52,308,cs),
(9,121,o),
(113,-11,o),
(305,-11,cs)
);
},
{
closed = 1;
nodes = (
(186,474,o),
(318,584,o),
(440,584,cs),
(585,584,o),
(641,466,o),
(602,298,cs),
(566,141,o),
(434,30,o),
(312,30,cs),
(167,30,o),
(111,149,o),
(150,318,cs)
);
},
{
closed = 1;
nodes = (
(503,-232,o),
(686,-232,cs),
(812,-232,o),
(937,-202,o),
(1023,-153,c),
(1016,-133,l),
(935,-163,o),
(843,-179,o),
(755,-179,cs),
(589,-179,o),
(441,-98,o),
(392,29,c),
(261,11,l),
(324,-144,o)
);
}
);
width = 736;
}
);
metricLeft = O;
metricWidth = O;
unicode = 81;
},
{
glyphname = R;
lastChange = "2025-02-18 21:22:07 +0000";
layers = (
{
anchors = (
{
name = bottom;
pos = (254,0);
},
{
name = top;
pos = (442,616);
}
);
background = {
shapes = (
{
closed = 1;
nodes = (
(-24,0,l),
(259,0,l),
(259,40,l),
(214,40,o),
(179,38,o),
(160,54,cs),
(151,62,o),
(146,73,o),
(146,91,cs),
(144,307,o),
(143,377,o),
(147,574,c),
(164,576,o),
(216,576,o),
(239,576,c),
(239,616,l),
(-24,616,l),
(-24,591,l),
(10,581,o),
(34,582,o),
(48,572,cs),
(58,565,o),
(63,552,o),
(63,525,cs),
(64,341,o),
(65,253,o),
(65,312,cs),
(65,373,o),
(64,282,o),
(63,91,cs),
(63,65,o),
(57,51,o),
(48,43,cs),
(32,29,o),
(6,31,o),
(-24,25,c)
);
}
);
};
color = 2;
layerId = m003;
shapes = (
{
closed = 1;
nodes = (
(373,282,o),
(507,354,o),
(531,458,cs),
(552,550,o),
(485,620,o),
(377,618,c),
(348,576,l),
(418,576,o),
(460,526,o),
(442,446,cs),
(423,362,o),
(333,322,o),
(217,322,c),
(208,282,l)
);
},
{
closed = 1;
nodes = (
(251,0,l),
(257,27,l),
(219,31,o),
(183,41,o),
(175,53,cs),
(168,63,o),
(169,79,o),
(175,106,cs),
(237,374,o),
(255,454,o),
(287,574,c),
(348,576,l),
(377,618,l),
(327,617,o),
(299,616,o),
(250,616,c),
(211,615,o),
(170,617,o),
(125,618,c),
(119,592,l),
(152,585,o),
(182,579,o),
(190,567,cs),
(196,556,o),
(194,538,o),
(188,512,cs),
(159,376,o),
(127,238,o),
(94,104,cs),
(86,69,o),
(78,53,o),
(65,44,cs),
(51,34,o),
(30,32,o),
(-13,25,c),
(-19,0,l)
);
},
{
closed = 1;
nodes = (
(597,18,l),
(527,26,o),
(435,156,o),
(381,337,c),
(297,305,l),
(340,123,o),
(418,-5,o),
(490,-3,cs),
(593,0,l)
);
}
);
width = 630;
}
);
metricLeft = H;
unicode = 82;
},
{
glyphname = S;
lastChange = "2025-02-18 21:22:07 +0000";
layers = (
{
anchors = (
{
name = bottom;
pos = (172,0);
},
{
name = top;
pos = (360,616);
}
);
color = 4;
layerId = m003;
shapes = (
{
closed = 1;
nodes = (
(277,-9,o),
(384,69,o),
(409,176,cs),
(447,341,o),
(140,354,o),
(175,492,cs),
(188,545,o),
(252,581,o),
(320,581,cs),
(395,581,o),
(417,517,o),
(397,453,c),
(436,453,l),
(447,508,o),
(464,576,o),
(472,593,c),
(426,611,o),
(361,624,o),
(320,624,cs),
(207,624,o),
(117,550,o),
(93,446,cs),
(53,272,o),
(358,279,o),
(325,136,cs),
(311,75,o),
(231,33,o),
(150,35,cs),
(76,37,o),
(52,104,o),
(75,197,c),
(34,197,l),
(31,171,o),
(17,104,o),
(0,36,c),
(59,10,o),
(121,-9,o),
(150,-9,cs)
);
}
);
width = 465;
}
);
metricLeft = O;
metricRight = O;
unicode = 83;
},
{
glyphname = T;
lastChange = "2025-02-18 21:22:07 +0000";
layers = (
{
anchors = (
{
name = bottom;
pos = (253,0);
},
{
name = center;
pos = (347,308);
},
{
name = top;
pos = (441,616);
}
);
background = {
shapes = (
{
closed = 1;
nodes = (
(161,0,l),
(406,0,l),
(406,18,l),
(360,31,o),
(337,33,o),
(328,52,cs),
(324,60,o),
(323,73,o),
(323,91,cs),
(322,164,o),
(322,237,o),
(321,310,cs),
(320,382,o),
(322,453,o),
(323,525,cs),
(323,561,o),
(329,575,o),
(350,585,cs),
(361,590,o),
(379,591,o),
(406,598,c),
(406,616,l),
(161,616,l),
(161,598,l),
(207,585,o),
(230,583,o),
(239,565,cs),
(243,556,o),
(245,543,o),
(245,525,cs),
(246,454,o),
(247,383,o),
(247,312,cs),
(247,238,o),
(246,165,o),
(245,91,cs),
(245,55,o),
(238,42,o),
(217,32,cs),
(206,27,o),
(188,25,o),
(161,18,c)
);
}
);
};
color = 4;
layerId = m003;
shapes = (
{
closed = 1;
nodes = (
(440,0,l),
(446,28,l),
(375,42,o),
(332,46,o),
(342,100,cs),
(374,262,o),
(413,428,o),
(455,590,c),
(425,561,l),
(489,561,o),
(558,561,o),
(587,561,cs),
(623,561,o),
(669,559,o),
(648,447,c),
(688,451,l),
(702,515,o),
(712,579,o),
(715,643,c),
(703,643,l),
(642,616,l),
(485,613,o),
(332,613,o),
(190,616,c),
(151,653,l),
(142,648,l),
(114,581,o),
(93,515,o),
(75,448,c),
(114,446,l),
(146,561,o),
(181,561,o),
(245,561,cs),
(395,561,l),
(371,590,l),
(344,462,o),
(271,146,o),
(258,100,cs),
(245,54,o),
(201,41,o),
(122,28,c),
(116,0,l)
);
}
);
width = 628;
}
);
metricLeft = H;
metricRight = H;
unicode = 84;
},
{
glyphname = U;
lastChange = "2025-02-18 21:22:07 +0000";
layers = (
{
anchors = (
{
name = bottom;
pos = (272,0);
},
{
name = ogonek;
pos = (543,10);
},
{
name = top;
pos = (460,616);
},
{
name = topright;
pos = (775,616);
}
);
color = 1;
layerId = m003;
shapes = (
{
closed = 1;
nodes = (
(458,-11,o),
(575,78,o),
(606,204,cs),
(639,339,o),
(658,431,o),
(678,514,cs),
(693,578,o),
(719,588,o),
(767,588,c),
(773,616,l),
(575,616,l),
(570,592,l),
(618,582,o),
(644,553,o),
(628,481,cs),
(607,387,o),
(589,303,o),
(565,208,cs),
(541,111,o),
(439,42,o),
(333,42,cs),
(235,42,o),
(178,102,o),
(181,188,cs),
(181,197,o),
(210,327,o),
(251,503,cs),
(267,570,o),
(304,588,o),
(354,592,c),
(359,616,l),
(125,616,l),
(118,585,l),
(147,579,o),
(186,567,o),
(173,511,cs),
(167,486,o),
(140,367,o),
(102,202,cs),
(73,77,o),
(165,-11,o),
(311,-11,cs)
);
}
);
width = 665;
}
);
metricLeft = H;
metricRight = H;
unicode = 85;
},
{
glyphname = V;
lastChange = "2025-02-18 21:22:07 +0000";
layers = (
{
anchors = (
{
name = bottom;
pos = (299,0);
},
{
name = top;
pos = (487,616);
}
);
color = 4;
layerId = m003;
shapes = (
{
closed = 1;
nodes = (
(328,-24,l),
(438,153,o),
(636,444,o),
(677,505,cs),
(718,566,o),
(757,579,o),
(821,588,c),
(827,616,l),
(577,616,l),
(572,593,l),
(621,586,o),
(653,573,o),
(646,543,cs),
(641,521,o),
(621,488,o),
(597,452,cs),
(348,70,l),
(382,93,l),
(354,227,o),
(315,480,o),
(312,496,cs),
(308,512,o),
(307,528,o),
(310,543,cs),
(314,558,o),
(319,582,o),
(407,591,c),
(413,616,l),
(125,616,l),
(119,588,l),
(165,580,o),
(209,571,o),
(224,489,cs),
(315,-24,l)
);
}
);
width = 719;
}
);
metricLeft = H;
metricRight = H;
unicode = 86;
},
{
glyphname = W;
lastChange = "2025-02-18 21:22:07 +0000";
layers = (
{
anchors = (
{
name = bottom;
pos = (416,0);
},
{
name = top;
pos = (604,616);
}
);
color = 4;
layerId = m003;
shapes = (
{
closed = 1;
nodes = (
(577,487,l),
(312,75,l),
(350,98,l),
(292,496,ls),
(282,562,o),
(267,582,o),
(353,591,c),
(359,616,l),
(125,616,l),
(119,588,l),
(147,579,o),
(193,572,o),
(206,489,cs),
(285,-24,l),
(298,-24,l),
(371,108,o),
(520,321,o),
(589,438,c)
);
},
{
closed = 1;
nodes = (
(616,-24,l),
(724,153,o),
(911,444,o),
(948,505,cs),
(985,566,o),
(987,576,o),
(1055,588,c),
(1061,616,l),
(863,616,l),
(857,591,l),
(937,570,o),
(924,533,o),
(872,452,cs),
(631,70,l),
(673,99,l),
(655,233,o),
(628,480,o),
(627,496,cs),
(620,572,o),
(624,582,o),
(693,591,c),
(699,616,l),
(465,616,l),
(459,591,l),
(504,584,o),
(533,572,o),
(543,489,cs),
(603,-24,l)
);
}
);
width = 953;
}
);
metricLeft = H;
metricRight = H;
unicode = 87;
},
{
glyphname = X;
lastChange = "2025-02-18 21:22:07 +0000";
layers = (
{
anchors = (
{
name = bottom;
pos = (266,0);
},
{
name = top;
pos = (454,616);
}
);
color = 4;
guides = (
{
angle = 53;
pos = (539,661);
}
);
layerId = m003;
shapes = (
{
closed = 1;
nodes = (
(577,0,l),
(583,28,l),
(544,33,o),
(538,26,o),
(496,114,cs),
(384,351,o),
(388,351,o),
(305,512,cs),
(291,541,o),
(287,555,o),
(290,566,cs),
(293,581,o),
(309,586,o),
(361,591,c),
(367,616,l),
(125,616,l),
(119,588,l),
(153,588,o),
(169,587,o),
(212,494,cs),
(310,286,o),
(316,286,o),
(399,105,cs),
(413,76,o),
(419,58,o),
(417,47,cs),
(413,30,o),
(389,29,o),
(325,25,c),
(319,0,l)
);
},
{
closed = 1;
nodes = (
(181,0,l),
(187,25,l),
(155,28,o),
(134,32,o),
(139,54,cs),
(142,67,o),
(151,80,o),
(182,112,cs),
(365,308,l),
(337,333,l),
(113,101,ls),
(32,17,o),
(21,30,o),
(-11,28,c),
(-17,0,l)
);
},
{
closed = 1;
nodes = (
(569,504,ls),
(648,582,o),
(674,585,o),
(713,588,c),
(719,616,l),
(521,616,l),
(515,591,l),
(542,588,o),
(559,586,o),
(555,567,cs),
(551,550,o),
(526,517,o),
(472,463,cs),
(348,340,l),
(378,315,l)
);
}
);
width = 654;
}
);
metricLeft = H;
metricRight = H;
unicode = 88;
},
{
glyphname = Y;
lastChange = "2025-02-18 21:22:07 +0000";
layers = (
{
anchors = (
{
name = bottom;
pos = (218,0);
},
{
name = top;
pos = (406,616);
},
{
name = topleft;
pos = (144,616);
}
);
color = 4;
layerId = m003;
shapes = (
{
closed = 1;
nodes = (
(412,0,l),
(418,28,l),
(349,33,o),
(303,30,o),
(317,93,cs),
(369,318,l),
(341,257,l),
(546,509,ls),
(610,588,o),
(646,588,o),
(659,588,c),
(665,616,l),
(467,616,l),
(461,591,l),
(531,581,o),
(542,565,o),
(497,505,c),
(335,306,l),
(349,307,l),
(280,525,l),
(265,586,o),
(266,585,o),
(335,591,c),
(341,616,l),
(125,616,l),
(119,588,l),
(154,588,o),
(173,581,o),
(180,556,cs),
(277,243,l),
(283,293,l),
(236,93,ls),
(224,38,o),
(160,33,o),
(112,28,c),
(106,0,l)
);
}
);
width = 557;
}
);
metricLeft = H;
metricRight = H;
unicode = 89;
},
{
glyphname = Z;
lastChange = "2025-02-18 21:22:07 +0000";
layers = (
{
anchors = (
{
name = bottom;
pos = (222,0);
},
{
name = center;
pos = (316,308);
},
{
name = top;
pos = (410,616);
}
);
color = 4;
layerId = m003;
shapes = (
{
closed = 1;
nodes = (
(82,0,o),
(277,1,o),
(306,1,cs),
(336,1,o),
(406,1,o),
(447,-2,c),
(486,57,o),
(528,143,o),
(553,210,c),
(519,210,l),
(496,154,o),
(427,43,o),
(279,41,cs),
(66,38,l),
(68,24,l),
(614,594,l),
(608,621,l),
(530,616,o),
(376,615,o),
(328,615,cs),
(270,615,o),
(169,611,o),
(129,617,c),
(106,554,o),
(85,490,o),
(70,427,c),
(98,427,l),
(120,479,o),
(131,576,o),
(266,576,cs),
(341,576,o),
(457,574,o),
(514,572,c),
(510,596,l),
(-50,12,l),
(-45,0,l)
);
}
);
width = 566;
}
);
metricLeft = H;
metricRight = H;
unicode = 90;
},
{
glyphname = a;
lastChange = "2025-02-18 21:22:07 +0000";
layers = (
{
anchors = (
{
name = bottom;
pos = (175,0);
},
{
name = ogonek;
pos = (357,10);
},
{
name = top;
pos = (269,402);
}
);
layerId = m003;
shapes = (
{
closed = 1;
nodes = (
(127,-15,o),
(232,71,o),
(299,191,c),
(295,242,l),
(236,132,o),
(150,45,o),
(107,45,cs),
(84,45,o),
(84,92,o),
(109,167,cs),
(147,274,o),
(214,347,o),
(275,347,cs),
(290,347,o),
(317,331,o),
(336,318,c),
(369,367,l),
(350,377,o),
(320,379,o),
(302,379,cs),
(189,379,o),
(72,280,o),
(24,140,cs),
(-6,51,o),
(7,-15,o),
(62,-15,cs)
);
},
{
closed = 1;
nodes = (
(331,-14,o),
(381,27,o),
(437,95,c),
(414,114,l),
(373,64,o),
(338,45,o),
(330,45,cs),
(314,45,o),
(317,86,o),
(336,156,cs),
(358,238,o),
(392,341,o),
(429,415,c),
(404,409,o),
(367,406,o),
(343,407,c),
(292,266,o),
(283,228,o),
(276,201,cs),
(273,189,o),
(270,180,o),
(265,163,cs),
(232,71,o),
(235,-14,o),
(280,-14,cs)
);
}
);
width = 444;
},
{
associatedMasterId = m003;
layerId = "0DE6FB79-B0B6-414C-BAFE-4B31CAFD69E7";
name = "7. Nov. 24, 00:06";
shapes = (
{
closed = 1;
nodes = (
(386,427,l),
(364,443,o),
(341,460,o),
(326,460,cs),
(253,460,o),
(163,346,o),
(113,184,cs),
(95,125,o),
(89,76,o),
(108,76,cs),
(131,76,o),
(206,136,o),
(276,208,c),
(293,190,l),
(187,77,o),
(81,-10,o),
(46,-10,cs),
(-3,-10,o),
(-12,61,o),
(16,152,cs),
(81,363,o),
(222,508,o),
(354,508,cs),
(374,508,o),
(402,493,o),
(424,476,c)
);
},
{
closed = 1;
nodes = (
(457,500,l),
(414,395,o),
(364,261,o),
(334,177,cs),
(307,105,o),
(302,54,o),
(322,54,cs),
(345,54,o),
(386,119,o),
(421,210,c),
(451,210,l),
(402,82,o),
(324,-8,o),
(263,-8,cs),
(220,-8,o),
(211,51,o),
(242,135,cs),
(211,52,o),
(288,250,o),
(382,500,c)
);
}
);
width = 467;
},
{
associatedMasterId = m003;
background = {
shapes = (
{
closed = 1;
nodes = (
(200,83,o),
(113,-8,o),
(67,-8,cs),
(3,-8,o),
(-18,54,o),
(15,141,cs),
(38,202,o),
(65,270,o),
(82,315,cs),
(109,387,o),
(115,438,o),
(96,438,cs),
(72,438,o),
(29,373,o),
(-8,282,c),
(-38,282,l),
(15,414,o),
(95,508,o),
(155,508,cs),
(199,508,o),
(206,445,o),
(173,357,cs),
(136,259,o),
(109,190,o),
(109,192,cs),
(83,118,o),
(83,66,o),
(110,66,cs),
(145,66,o),
(215,145,o),
(277,257,c),
(277,212,l)
);
},
{
closed = 1;
nodes = (
(442,500,l),
(402,401,o),
(351,268,o),
(319,177,cs),
(292,105,o),
(287,54,o),
(307,54,cs),
(330,54,o),
(371,119,o),
(406,210,c),
(436,210,l),
(387,82,o),
(309,-8,o),
(248,-8,cs),
(205,-8,o),
(196,51,o),
(227,135,cs),
(196,52,o),
(273,250,o),
(367,500,c)
);
}
);
};
layerId = "90AB4BE1-A270-4CBB-8974-CA3C0A24FD98";
name = "8. Nov. 24, 10:52";
shapes = (
{
closed = 1;
nodes = (
(376,417,l),
(343,441,o),
(313,452,o),
(286,452,cs),
(209,452,o),
(152,362,o),
(103,205,cs),
(89,162,o),
(82,126,o),
(82,101,cs),
(82,79,o),
(101,56,o),
(112,56,cs),
(166,56,o),
(230,120,o),
(286,197,c),
(293,190,l),
(221,73,o),
(135,-10,o),
(86,-10,cs),
(16,-10,o),
(-13,57,o),
(16,152,cs),
(80,361,o),
(220,508,o),
(354,508,cs),
(372,508,o),
(401,495,o),
(424,476,c)
);
},
{
closed = 1;
nodes = (
(460,508,l),
(424,421,o),
(372,284,o),
(334,177,cs),
(307,105,o),
(302,54,o),
(322,54,cs),
(345,54,o),
(386,119,o),
(421,210,c),
(451,210,l),
(402,82,o),
(324,-8,o),
(263,-8,cs),
(220,-8,o),
(211,51,o),
(242,135,cs),
(211,52,o),
(288,250,o),
(382,500,c)
);
},
{
closed = 1;
nodes = (
(89,-10,o),
(183,73,o),
(293,190,c),
(276,208,l),
(195,125,o),
(126,66,o),
(109,66,cs),
(83,66,o),
(82,115,o),
(107,184,cs),
(166,346,o),
(257,460,o),
(326,460,cs),
(335,460,o),
(359,446,o),
(386,427,c),
(424,476,l),
(400,495,o),
(371,508,o),
(354,508,cs),
(232,508,o),
(91,361,o),
(15,152,cs),
(-19,57,o),
(2,-10,o),
(66,-10,cs)
);
}
);
width = 467;
}
);
metricLeft = o;
unicode = 97;
},
{
glyphname = b;
lastChange = "2025-02-18 21:22:07 +0000";
layers = (
{
anchors = (
{
name = bottom;
pos = (176,0);
},
{
name = center;
pos = (187,510);
},
{
name = top;
pos = (270,402);
}
);
layerId = m003;
shapes = (
{
closed = 1;
nodes = (
(239,-15,o),
(344,63,o),
(382,172,cs),
(428,306,o),
(389,404,o),
(285,404,cs),
(233,404,o),
(168,374,o),
(127,330,c),
(130,285,l),
(160,326,o),
(209,355,o),
(249,355,cs),
(322,355,o),
(344,270,o),
(300,146,cs),
(276,73,o),
(217,23,o),
(158,23,cs),
(118,23,o),
(102,66,o),
(121,130,cs),
(171,300,o),
(215,452,o),
(241,542,cs),
(252,580,o),
(271,629,o),
(284,662,c),
(257,646,o),
(169,635,o),
(80,635,c),
(75,606,l),
(139,609,o),
(178,598,o),
(173,583,c),
(171,567,o),
(166,543,o),
(161,525,cs),
(41,102,ls),
(21,33,o),
(58,-15,o),
(127,-15,cs)
);
}
);
width = 427;
}
);
metricLeft = l;
metricRight = o;
unicode = 98;
},
{
glyphname = c;
lastChange = "2025-02-18 21:22:07 +0000";
layers = (
{
anchors = (
{
name = bottom;
pos = (131,0);
},
{
name = top;
pos = (225,402);
}
);
background = {
shapes = (
{
closed = 1;
nodes = (
(154,-12,o),
(234,32,o),
(286,93,c),
(268,111,l),
(228,67,o),
(174,42,o),
(135,42,cs),
(83,42,o),
(74,115,o),
(119,225,cs),
(153,311,o),
(205,367,o),
(245,367,cs),
(266,367,o),
(272,345,o),
(258,307,cs),
(237,254,o),
(162,207,o),
(78,192,c),
(70,160,l),
(198,184,o),
(307,254,o),
(335,323,cs),
(354,375,o),
(327,412,o),
(271,412,cs),
(180,412,o),
(81,324,o),
(33,200,cs),
(-14,76,o),
(10,-12,o),
(92,-12,cs)
);
}
);
};
layerId = m003;
shapes = (
{
closed = 1;
nodes = (
(176,-14,o),
(255,30,o),
(303,93,c),
(281,114,l),
(246,73,o),
(193,44,o),
(153,44,cs),
(104,44,o),
(92,117,o),
(126,224,cs),
(158,320,o),
(207,387,o),
(246,387,cs),
(280,387,o),
(292,350,o),
(272,294,c),
(270,284,o),
(274,275,o),
(283,275,cs),
(316,275,o),
(344,293,o),
(352,316,cs),
(369,374,o),
(329,414,o),
(259,414,cs),
(169,414,o),
(77,325,o),
(38,201,cs),
(-2,75,o),
(29,-14,o),
(114,-14,cs)
);
}
);
width = 345;
}
);
metricLeft = o;
metricRight = o;
unicode = 99;
},
{
glyphname = d;
lastChange = "2025-02-18 21:22:07 +0000";
layers = (
{
anchors = (
{
name = bottom;
pos = (177,0);
},
{
name = center;
pos = (405,510);
},
{
name = top;
pos = (270,402);
},
{
name = topright;
pos = (523,637);
}
);
layerId = m003;
shapes = (
{
closed = 1;
nodes = (
(320,-14,o),
(389,25,o),
(419,79,c),
(398,97,l),
(374,62,o),
(341,38,o),
(317,38,cs),
(304,38,o),
(301,64,o),
(313,105,cs),
(345,216,o),
(409,429,o),
(442,540,cs),
(449,565,o),
(467,616,o),
(485,660,c),
(451,644,o),
(362,633,o),
(281,633,c),
(276,604,l),
(340,607,o),
(379,597,o),
(374,580,c),
(373,564,o),
(367,541,o),
(362,523,cs),
(340,448,o),
(319,375,o),
(300,309,cs),
(262,177,o),
(234,79,o),
(233,72,cs),
(223,23,o),
(232,-14,o),
(256,-14,cs)
);
},
{
closed = 1;
nodes = (
(136,-15,o),
(241,71,o),
(307,191,c),
(304,242,l),
(244,132,o),
(158,45,o),
(115,45,cs),
(92,45,o),
(92,92,o),
(118,167,cs),
(155,274,o),
(222,347,o),
(283,347,cs),
(298,347,o),
(325,331,o),
(344,318,c),
(378,367,l),
(358,377,o),
(329,379,o),
(311,379,cs),
(198,379,o),
(81,280,o),
(33,140,cs),
(3,51,o),
(16,-15,o),
(71,-15,cs)
);
}
);
width = 429;
},
{
associatedMasterId = m003;
layerId = "993377BE-703F-43F0-9103-9C55914F64D0";
name = "7. Nov. 24, 00:11";
shapes = (
{
closed = 1;
nodes = (
(98,-3,o),
(197,77,o),
(303,190,c),
(286,208,l),
(216,136,o),
(150,85,o),
(127,85,cs),
(108,85,o),
(107,127,o),
(125,186,cs),
(175,348,o),
(261,463,o),
(334,463,cs),
(348,463,o),
(373,451,o),
(396,435,c),
(434,484,l),
(412,501,o),
(382,513,o),
(362,513,cs),
(230,513,o),
(91,363,o),
(26,152,cs),
(-2,61,o),
(14,-3,o),
(63,-3,cs)
);
},
{
closed = 1;
nodes = (
(326,-6,o),
(410,88,o),
(463,220,c),
(433,220,l),
(402,142,o),
(359,87,o),
(330,87,cs),
(318,87,o),
(325,128,o),
(347,187,cs),
(369,248,o),
(481,573,o),
(531,701,c),
(456,701,l),
(255,145,l),
(222,57,o),
(225,-6,o),
(262,-6,cs)
);
},
{
closed = 1;
nodes = (
(336,648,l),
(391,651,o),
(437,635,o),
(447,610,c),
(456,701,l),
(342,702,l)
);
}
);
width = 463;
}
);
metricLeft = o;
metricWidth = a;
unicode = 100;
},
{
glyphname = e;
lastChange = "2025-02-18 21:22:07 +0000";
layers = (
{
anchors = (
{
name = bottom;
pos = (132,0);
},
{
name = ogonek;
pos = (280,10);
},
{
name = top;
pos = (226,402);
}
);
layerId = m003;
shapes = (
{
closed = 1;
nodes = (
(177,-14,o),
(255,30,o),
(303,93,c),
(281,114,l),
(244,69,o),
(192,44,o),
(153,44,cs),
(103,44,o),
(89,114,o),
(126,224,cs),
(154,310,o),
(201,365,o),
(240,365,cs),
(259,365,o),
(266,344,o),
(255,308,cs),
(238,255,o),
(167,209,o),
(83,194,c),
(77,157,l),
(206,181,o),
(312,253,o),
(335,322,cs),
(352,376,o),
(320,414,o),
(263,414,cs),
(171,414,o),
(77,325,o),
(38,201,cs),
(0,77,o),
(30,-14,o),
(114,-14,cs)
);
}
);
width = 358;
}
);
metricLeft = o;
unicode = 101;
},
{
glyphname = f;
lastChange = "2025-02-18 21:22:07 +0000";
layers = (
{
anchors = (
{
name = bottom;
pos = (76,0);
},
{
name = top;
pos = (270,637);
}
);
background = {
shapes = (
{
closed = 0;
nodes = (
(33,81,ls),
(22,33,o),
(-7,-90,o),
(-49,-138,cs),
(-59,-150,o),
(-70,-157,o),
(-82,-157,cs),
(-101,-158,o),
(-98,-135,o),
(-117,-134,cs),
(-150,-134,o),
(-180,-163,o),
(-189,-205,cs),
(-193,-220,o),
(-178,-232,o),
(-152,-232,cs),
(-118,-232,o),
(-53,-190,o),
(-29,-164,cs),
(34,-96,o),
(96,29,o),
(121,148,cs)
);
}
);
};
layerId = m003;
shapes = (
{
closed = 1;
nodes = (
(-100,-234,o),
(-59,-202,o),
(-20,-164,cs),
(73,-78,o),
(113,68,o),
(130,148,cs),
(137,180,o),
(143,210,o),
(150,241,cs),
(167,323,o),
(183,402,o),
(204,486,cs),
(223,562,o),
(276,608,o),
(317,608,cs),
(361,608,o),
(384,581,o),
(372,542,cs),
(367,529,o),
(373,520,o),
(383,520,cs),
(414,520,o),
(443,538,o),
(449,561,cs),
(462,610,o),
(418,643,o),
(343,643,cs),
(242,643,o),
(138,559,o),
(110,434,cs),
(99,383,o),
(86,318,o),
(74,254,cs),
(58,175,o),
(42,95,o),
(28,32,cs),
(8,-55,o),
(-2,-89,o),
(-44,-137,cs),
(-54,-149,o),
(-66,-155,o),
(-75,-155,cs),
(-83,-155,o),
(-86,-151,o),
(-91,-144,cs),
(-95,-138,o),
(-99,-132,o),
(-110,-132,cs),
(-142,-132,o),
(-175,-163,o),
(-184,-205,cs),
(-187,-220,o),
(-172,-234,o),
(-145,-234,cs)
);
},
{
closed = 1;
nodes = (
(265,357,l),
(282,406,l),
(103,402,l),
(17,382,l),
(13,369,l)
);
}
);
width = 273;
}
);
metricWidth = l;
unicode = 102;
},
{
glyphname = g;
lastChange = "2025-02-18 21:22:07 +0000";
layers = (
{
anchors = (
{
name = bottom;
pos = (72,-230);
},
{
name = top;
pos = (265,402);
}
);
layerId = m003;
shapes = (
{
closed = 1;
nodes = (
(206,-173,o),
(305,-134,o),
(318,-79,cs),
(340,10,o),
(253,35,o),
(181,56,cs),
(137,69,o),
(102,80,o),
(106,101,cs),
(110,123,o),
(135,140,o),
(169,142,c),
(169,146,l),
(128,154,l),
(90,139,o),
(57,108,o),
(51,83,cs),
(35,14,o),
(106,-8,o),
(169,-28,cs),
(219,-44,o),
(261,-58,o),
(253,-90,cs),
(246,-118,o),
(193,-138,o),
(126,-138,cs),
(32,-138,o),
(-23,-92,o),
(-6,-23,cs),
(1,4,o),
(49,29,o),
(112,40,c),
(85,61,l),
(-7,44,o),
(-82,-4,o),
(-93,-55,cs),
(-110,-123,o),
(-39,-173,o),
(79,-173,cs)
);
},
{
closed = 1;
nodes = (
(235,127,o),
(304,184,o),
(322,264,cs),
(343,351,o),
(302,414,o),
(223,414,cs),
(149,414,o),
(84,359,o),
(66,281,cs),
(45,192,o),
(84,127,o),
(158,127,cs)
);
},
{
closed = 1;
nodes = (
(131,154,o),
(124,208,o),
(147,288,cs),
(163,346,o),
(192,386,o),
(218,386,cs),
(249,386,o),
(259,332,o),
(241,253,cs),
(227,194,o),
(195,154,o),
(163,154,cs)
);
},
{
closed = 1;
nodes = (
(299,284,o),
(348,358,o),
(380,358,cs),
(383,358,o),
(387,357,o),
(391,356,cs),
(395,355,o),
(399,354,o),
(401,354,cs),
(412,354,o),
(427,368,o),
(434,386,cs),
(440,403,o),
(429,414,o),
(411,414,cs),
(367,414,o),
(300,332,o),
(250,220,c),
(264,178,l)
);
}
);
width = 407;
},
{
associatedMasterId = m003;
background = {
shapes = (
{
closed = 0;
nodes = (
(-67,-200,l),
(278,700,l)
);
},
{
closed = 0;
nodes = (
(8,-200,l),
(353,700,l)
);
},
{
closed = 0;
nodes = (
(148,-200,l),
(493,700,l)
);
},
{
closed = 0;
nodes = (
(223,-200,l),
(568,700,l)
);
},
{
closed = 0;
nodes = (
(-172,-200,l),
(173,700,l)
);
},
{
closed = 0;
nodes = (
(-142,-200,l),
(203,700,l)
);
},
{
closed = 0;
nodes = (
(298,-200,l),
(643,700,l)
);
},
{
closed = 0;
nodes = (
(328,-200,l),
(673,700,l)
);
}
);
};
layerId = "CD19AF2B-D444-4E18-A45E-DA9D7905EDAB";
name = "6. Nov. 24, 23:26";
shapes = (
{
closed = 1;
nodes = (
(199,-248,o),
(311,-189,o),
(339,-100,cs),
(353,-51,o),
(314,-3,o),
(245,16,cs),
(162,38,o),
(104,68,o),
(104,88,cs),
(104,101,o),
(126,128,o),
(157,154,c),
(123,163,l),
(88,130,o),
(60,97,o),
(55,83,cs),
(39,39,o),
(55,0,o),
(93,-11,cs),
(202,-41,o),
(271,-89,o),
(261,-126,cs),
(250,-165,o),
(192,-196,o),
(120,-201,cs),
(-1,-209,o),
(-69,-161,o),
(-44,-85,cs),
(-31,-48,o),
(30,-6,o),
(103,18,c),
(81,45,l),
(-35,9,o),
(-124,-51,o),
(-134,-101,cs),
(-153,-191,o),
(-69,-249,o),
(68,-241,cs)
);
},
{
closed = 1;
nodes = (
(229,132,o),
(298,192,o),
(328,279,cs),
(367,399,o),
(333,482,o),
(244,479,cs),
(166,476,o),
(88,411,o),
(57,323,cs),
(16,206,o),
(58,128,o),
(160,135,cs)
);
},
{
closed = 1;
nodes = (
(125,182,o),
(111,246,o),
(140,339,cs),
(157,394,o),
(188,434,o),
(216,435,cs),
(263,437,o),
(274,366,o),
(243,264,cs),
(228,215,o),
(199,182,o),
(171,184,cs)
);
},
{
closed = 1;
nodes = (
(337,397,o),
(345,432,o),
(367,434,cs),
(384,435,o),
(430,405,o),
(441,389,c),
(470,411,l),
(463,454,o),
(444,484,o),
(424,484,cs),
(378,484,o),
(323,451,o),
(292,404,c),
(310,377,l)
);
}
);
width = 414;
}
);
unicode = 103;
},
{
glyphname = h;
lastChange = "2025-02-18 21:22:07 +0000";
layers = (
{
anchors = (
{
name = bottom;
pos = (183,0);
},
{
name = center;
pos = (190,510);
},
{
name = top;
pos = (332,637);
}
);
layerId = m003;
shapes = (
{
closed = 1;
nodes = (
(283,-14,o),
(357,66,o),
(396,178,cs),
(445,314,o),
(417,414,o),
(329,414,cs),
(267,414,o),
(178,324,o),
(112,196,c),
(139,179,l),
(183,279,o),
(241,349,o),
(279,349,cs),
(341,349,o),
(356,268,o),
(314,150,cs),
(288,72,o),
(257,18,o),
(240,18,cs),
(229,18,o),
(227,40,o),
(236,75,cs),
(240,84,o),
(237,94,o),
(229,94,cs),
(200,94,o),
(173,80,o),
(166,61,cs),
(152,17,o),
(175,-14,o),
(217,-14,cs)
);
},
{
closed = 1;
nodes = (
(30,-10,o),
(62,-7,o),
(90,-7,c),
(118,104,o),
(209,432,o),
(244,543,cs),
(252,568,o),
(270,619,o),
(287,663,c),
(251,647,o),
(164,636,o),
(82,636,c),
(80,607,l),
(143,610,o),
(182,600,o),
(176,584,c),
(174,568,o),
(170,544,o),
(165,526,cs),
(147,465,o),
(132,411,o),
(117,358,cs),
(77,216,o),
(45,100,o),
(1,-16,c)
);
}
);
width = 442;
}
);
metricLeft = l;
metricRight = o;
unicode = 104;
},
{
glyphname = i;
lastChange = "2025-02-18 21:22:07 +0000";
layers = (
{
anchors = (
{
name = bottom;
pos = (90,0);
}
);
layerId = m003;
shapes = (
{
closed = 1;
nodes = (
(213,528,o),
(235,544,o),
(240,563,cs),
(248,589,o),
(227,609,o),
(197,609,cs),
(175,609,o),
(154,593,o),
(150,574,cs),
(144,549,o),
(161,528,o),
(189,528,cs)
);
},
{
closed = 1;
nodes = (
(44,80,ls),
(25,27,o),
(33,-14,o),
(65,-14,cs),
(113,-14,o),
(183,28,o),
(232,84,c),
(210,104,l),
(169,66,o),
(135,40,o),
(126,40,cs),
(115,40,o),
(114,63,o),
(128,100,cs),
(211,339,ls),
(231,397,o),
(219,414,o),
(187,414,cs),
(138,414,o),
(78,368,o),
(31,320,c),
(55,299,l),
(83,330,o),
(112,353,o),
(127,353,cs),
(134,353,o),
(131,325,o),
(115,281,cs)
);
}
);
width = 260;
}
);
unicode = 105;
},
{
glyphname = j;
lastChange = "2025-02-18 21:22:07 +0000";
layers = (
{
layerId = m003;
shapes = (
{
closed = 1;
nodes = (
(-44,-234,o),
(108,-78,o),
(147,74,cs),
(216,343,ls),
(227,385,o),
(223,414,o),
(191,414,cs),
(187,414,l),
(184,414,l),
(183,414,ls),
(145,409,o),
(83,372,o),
(29,320,c),
(51,299,l),
(81,330,o),
(113,353,o),
(127,353,cs),
(129,353,o),
(130,353,o),
(131,348,c),
(130,334,o),
(123,302,o),
(113,260,cs),
(67,62,ls),
(36,-72,o),
(-20,-155,o),
(-39,-155,cs),
(-47,-155,o),
(-50,-151,o),
(-55,-144,cs),
(-59,-138,o),
(-63,-132,o),
(-74,-132,cs),
(-107,-132,o),
(-139,-163,o),
(-146,-196,cs),
(-152,-220,o),
(-136,-234,o),
(-109,-234,cs)
);
},
{
closed = 1;
nodes = (
(243,495,o),
(269,511,o),
(275,534,cs),
(283,560,o),
(265,576,o),
(234,576,cs),
(204,576,o),
(177,559,o),
(169,536,c),
(164,512,o),
(181,495,o),
(212,495,cs)
);
}
);
width = 240;
},
{
associatedMasterId = m003;
background = {
shapes = (
{
closed = 1;
nodes = (
(-22,-158,o),
(-76,-230,o),
(-122,-230,cs),
(-160,-230,o),
(-169,-180,o),
(-144,-109,cs),
(-138,-93,o),
(-142,-81,o),
(-153,-81,cs),
(-194,-81,o),
(-232,-105,o),
(-244,-139,cs),
(-268,-209,o),
(-226,-258,o),
(-143,-258,cs),
(-43,-258,o),
(53,-169,o),
(89,-43,c),
(7,-57,l)
);
}
);
};
layerId = "F26A99E2-B18E-42DF-831C-82EB1608A556";
name = "7. Nov. 24, 19:28";
shapes = (
{
closed = 1;
nodes = (
(-12,-106,o),
(-57,-181,o),
(-103,-181,cs),
(-141,-181,o),
(-150,-131,o),
(-125,-60,cs),
(-119,-44,o),
(-123,-32,o),
(-134,-32,cs),
(-175,-32,o),
(-213,-56,o),
(-225,-90,cs),
(-249,-160,o),
(-207,-209,o),
(-124,-209,cs),
(-24,-209,o),
(60,-116,o),
(108,6,cs),
(254,381,l),
(277,455,o),
(264,508,o),
(224,508,cs),
(163,508,o),
(85,418,o),
(36,290,c),
(66,290,l),
(101,381,o),
(142,446,o),
(165,446,cs),
(185,446,o),
(180,395,o),
(153,323,cs),
(26,-8,ls)
);
},
{
closed = 1;
nodes = (
(283,612,o),
(311,631,o),
(319,659,cs),
(328,687,o),
(311,706,o),
(279,706,cs),
(247,706,o),
(218,687,o),
(209,659,cs),
(201,631,o),
(218,612,o),
(250,612,cs)
);
}
);
width = 263;
}
);
metricWidth = i;
unicode = 106;
},
{
glyphname = k;
lastChange = "2025-02-18 21:22:07 +0000";
layers = (
{
anchors = (
{
name = bottom;
pos = (174,0);
},
{
name = top;
pos = (324,637);
}
);
layerId = m003;
shapes = (
{
closed = 1;
nodes = (
(311,264,ls),
(359,291,o),
(390,338,o),
(386,373,cs),
(384,396,o),
(361,414,o),
(332,414,cs),
(269,414,o),
(197,381,o),
(143,280,c),
(148,235,l),
(194,332,o),
(250,357,o),
(300,357,cs),
(310,357,o),
(317,347,o),
(318,334,cs),
(319,316,o),
(300,291,o),
(269,274,cs),
(80,165,l),
(85,134,l)
);
},
{
closed = 1;
nodes = (
(24,-10,o),
(55,-7,o),
(85,-7,c),
(111,104,o),
(203,428,o),
(237,539,cs),
(244,564,o),
(262,615,o),
(279,659,c),
(244,643,o),
(156,632,o),
(75,632,c),
(72,603,l),
(135,606,o),
(174,596,o),
(169,580,c),
(167,564,o),
(162,540,o),
(157,522,cs),
(138,458,o),
(122,402,o),
(107,348,cs),
(69,211,o),
(38,98,o),
(-5,-16,c)
);
},
{
closed = 1;
nodes = (
(404,102,l),
(379,70,o),
(353,47,o),
(340,45,cs),
(316,43,o),
(265,129,o),
(240,253,c),
(175,211,l),
(200,79,o),
(257,-14,o),
(292,-14,cs),
(325,-14,o),
(380,25,o),
(426,80,c)
);
}
);
width = 425;
}
);
unicode = 107;
},
{
glyphname = l;
lastChange = "2025-02-18 21:22:07 +0000";
layers = (
{
anchors = (
{
name = bottom;
pos = (74,0);
},
{
name = center;
pos = (120,201);
},
{
name = top;
pos = (223,637);
},
{
name = topright;
pos = (318,637);
}
);
layerId = m003;
shapes = (
{
closed = 1;
nodes = (
(114,-14,o),
(183,25,o),
(213,79,c),
(193,97,l),
(169,62,o),
(136,38,o),
(112,38,cs),
(99,38,o),
(96,64,o),
(108,105,cs),
(129,177,o),
(150,250,o),
(171,322,cs),
(192,393,o),
(214,466,o),
(235,538,cs),
(242,563,o),
(261,614,o),
(279,658,c),
(244,642,o),
(155,631,o),
(74,631,c),
(69,602,l),
(133,605,o),
(172,595,o),
(167,578,c),
(166,562,o),
(160,539,o),
(155,521,cs),
(133,445,o),
(113,371,o),
(91,296,cs),
(69,221,o),
(47,146,o),
(26,72,c),
(17,23,o),
(26,-14,o),
(50,-14,cs)
);
}
);
width = 224;
}
);
unicode = 108;
},
{
glyphname = m;
lastChange = "2025-02-18 21:22:07 +0000";
layers = (
{
anchors = (
{
name = bottom;
pos = (292,0);
},
{
name = top;
pos = (386,402);
}
);
background = {
shapes = (
{
closed = 1;
nodes = (
(75,393,o),
(116,427,o),
(125,427,qs),
(130,427,o),
(134,417,o),
(134,411,qs),
(134,396,o),
(119,333,o),
(97,261,o),
(72,187,o),
(62,158,qs),
(5,-1,l),
(7,-7,l),
(20,-4,o),
(38,-2,o),
(53,0,o),
(70,2,o),
(82,4,q),
(88,25,o),
(104,75,o),
(128,135,o),
(164,206,o),
(191,249,qs),
(218,292,o),
(269,358,o),
(313,404,o),
(345,427,o),
(353,427,qs),
(362,427,o),
(362,415,qs),
(362,401,o),
(346,341,o),
(322,262,o),
(292,173,o),
(262,89,o),
(236,21,o),
(229,0,q),
(233,-7,l),
(254,-2,o),
(282,1,o),
(307,4,q),
(311,21,o),
(320,51,o),
(333,86,o),
(354,131,o),
(370,163,qs),
(403,227,o),
(475,328,o),
(539,398,o),
(587,434,o),
(598,434,qs),
(600,434,o),
(608,431,o),
(608,424,qs),
(608,422,o),
(605,405,o),
(594,370,o),
(574,313,o),
(557,272,qs),
(538,227,o),
(513,164,o),
(495,119,o),
(484,86,o),
(480,71,qs),
(478,66,o),
(473,42,o),
(473,30,qs),
(473,6,o),
(499,-10,o),
(511,-10,qs),
(530,-10,o),
(574,15,o),
(617,54,o),
(659,101,o),
(676,122,q),
(656,144,l),
(645,131,o),
(620,101,o),
(594,75,o),
(571,58,o),
(562,58,qs),
(558,58,o),
(554,61,o),
(554,68,qs),
(554,74,o),
(564,104,o),
(577,140,o),
(590,173,o),
(594,182,qs),
(621,250,o),
(658,345,o),
(680,409,o),
(690,453,o),
(690,470,qs),
(690,495,o),
(665,510,o),
(653,510,qs),
(633,510,o),
(565,474,o),
(521,431,qs),
(483,392,o),
(418,303,o),
(386,254,q),
(392,274,o),
(408,322,o),
(423,372,o),
(436,418,o),
(439,436,qs),
(441,444,o),
(443,459,o),
(443,468,qs),
(443,487,o),
(428,509,o),
(411,509,qs),
(402,509,o),
(370,498,o),
(323,467,o),
(264,407,o),
(228,357,qs),
(226,354,o),
(206,326,o),
(182,292,o),
(161,260,o),
(158,254,q),
(170,289,o),
(193,359,o),
(202,396,qs),
(210,428,o),
(215,460,o),
(215,469,qs),
(215,489,o),
(197,509,o),
(182,509,qs),
(162,509,o),
(120,483,o),
(78,442,o),
(39,393,o),
(22,371,q),
(43,350,l)
);
}
);
};
layerId = m003;
shapes = (
{
closed = 1;
nodes = (
(533,-15,o),
(581,25,o),
(640,95,c),
(618,116,l),
(584,75,o),
(548,44,o),
(534,44,cs),
(524,44,o),
(537,83,o),
(562,145,cs),
(609,271,ls),
(639,352,o),
(648,415,o),
(593,415,cs),
(528,415,o),
(400,301,o),
(332,144,c),
(310,25,l),
(364,183,o),
(493,349,o),
(551,349,cs),
(566,349,o),
(552,314,o),
(529,249,cs),
(468,91,ls),
(434,0,o),
(464,-15,o),
(496,-15,cs)
);
},
{
closed = 1;
nodes = (
(47,-9,o),
(71,-5,o),
(97,-4,c),
(159,209,o),
(187,318,o),
(190,333,cs),
(200,387,o),
(193,414,o),
(157,414,cs),
(119,414,o),
(81,378,o),
(16,300,c),
(41,279,l),
(71,321,o),
(99,343,o),
(111,343,cs),
(124,343,o),
(117,298,o),
(106,258,cs),
(56,80,o),
(34,23,o),
(21,-14,c)
);
},
{
closed = 1;
nodes = (
(249,-11,o),
(281,-5,o),
(304,-5,c),
(310,22,o),
(352,163,o),
(375,243,cs),
(381,262,o),
(386,279,o),
(389,288,cs),
(409,360,o),
(412,414,o),
(374,414,cs),
(305,414,o),
(199,304,o),
(124,153,c),
(113,54,l),
(158,191,o),
(287,344,o),
(322,344,cs),
(333,344,o),
(329,304,o),
(304,224,cs),
(273,118,o),
(244,31,o),
(226,-15,c)
);
}
);
width = 677;
}
);
metricLeft = n;
metricRight = n;
unicode = 109;
},
{
glyphname = n;
lastChange = "2025-02-18 21:22:07 +0000";
layers = (
{
anchors = (
{
name = bottom;
pos = (184,0);
},
{
name = top;
pos = (278,402);
}
);
layerId = m003;
shapes = (
{
closed = 1;
nodes = (
(48,-7,o),
(73,-3,o),
(99,-2,c),
(162,213,o),
(187,318,o),
(190,333,cs),
(200,387,o),
(193,414,o),
(157,414,cs),
(119,414,o),
(81,378,o),
(16,300,c),
(41,279,l),
(71,321,o),
(99,343,o),
(111,343,cs),
(124,343,o),
(117,298,o),
(106,258,cs),
(56,80,o),
(36,24,o),
(23,-12,c)
);
},
{
closed = 1;
nodes = (
(324,-15,o),
(372,25,o),
(431,95,c),
(409,116,l),
(375,75,o),
(339,44,o),
(325,44,cs),
(315,44,o),
(328,83,o),
(352,145,cs),
(394,271,ls),
(424,352,o),
(433,415,o),
(378,415,cs),
(312,415,o),
(184,301,o),
(117,144,c),
(95,25,l),
(149,183,o),
(278,349,o),
(336,349,cs),
(350,349,o),
(337,314,o),
(314,249,cs),
(259,91,ls),
(224,0,o),
(255,-15,o),
(287,-15,cs)
);
}
);
width = 462;
}
);
unicode = 110;
},
{
glyphname = o;
lastChange = "2025-02-18 21:22:07 +0000";
layers = (
{
anchors = (
{
name = bottom;
pos = (159,0);
},
{
name = center;
pos = (206,201);
},
{
name = ogonek;
pos = (328,10);
},
{
name = top;
pos = (253,402);
},
{
name = topright;
pos = (442,402);
}
);
layerId = m003;
shapes = (
{
closed = 1;
nodes = (
(234,-14,o),
(318,55,o),
(352,150,cs),
(408,305,o),
(366,414,o),
(252,414,cs),
(168,414,o),
(84,343,o),
(50,244,cs),
(-3,93,o),
(39,-14,o),
(151,-14,cs)
);
},
{
closed = 1;
nodes = (
(95,13,o),
(86,116,o),
(139,266,cs),
(164,337,o),
(208,387,o),
(245,387,cs),
(310,387,o),
(318,281,o),
(263,127,cs),
(239,60,o),
(196,13,o),
(159,13,cs)
);
}
);
width = 412;
}
);
unicode = 111;
},
{
glyphname = p;
lastChange = "2025-02-18 21:22:07 +0000";
layers = (
{
anchors = (
{
name = bottom;
pos = (156,0);
},
{
name = top;
pos = (278,402);
}
);
layerId = m003;
shapes = (
{
closed = 1;
nodes = (
(266,28,o),
(346,98,o),
(395,221,cs),
(440,333,o),
(399,412,o),
(296,412,cs),
(179,412,o),
(60,349,o),
(10,262,c),
(28,230,l),
(71,308,o),
(165,363,o),
(256,363,cs),
(328,363,o),
(352,295,o),
(312,195,cs),
(278,112,o),
(225,67,o),
(160,67,cs),
(144,67,o),
(118,79,o),
(100,96,c),
(91,48,l),
(107,37,o),
(141,28,o),
(170,28,cs)
);
},
{
closed = 1;
nodes = (
(172,-192,l),
(178,-167,l),
(140,-161,o),
(118,-160,o),
(108,-151,cs),
(99,-143,o),
(99,-129,o),
(105,-101,cs),
(229,463,l),
(155,458,l),
(29,-101,ls),
(22,-130,o),
(15,-145,o),
(3,-153,cs),
(-15,-165,o),
(-38,-162,o),
(-74,-167,c),
(-80,-192,l)
);
}
);
width = 434;
},
{
associatedMasterId = m003;
background = {
shapes = (
{
closed = 0;
nodes = (
(-67,-200,l),
(278,700,l)
);
},
{
closed = 0;
nodes = (
(8,-200,l),
(353,700,l)
);
},
{
closed = 0;
nodes = (
(148,-200,l),
(493,700,l)
);
},
{
closed = 0;
nodes = (
(223,-200,l),
(568,700,l)
);
},
{
closed = 0;
nodes = (
(-172,-200,l),
(173,700,l)
);
},
{
closed = 0;
nodes = (
(-142,-200,l),
(203,700,l)
);
},
{
closed = 0;
nodes = (
(298,-200,l),
(643,700,l)
);
},
{
closed = 0;
nodes = (
(328,-200,l),
(673,700,l)
);
}
);
};
layerId = "029680C6-E5C4-473E-9EF7-0B855439BBB5";
name = "6. Nov. 24, 23:23";
shapes = (
{
closed = 1;
nodes = (
(249,-51,o),
(409,59,o),
(470,275,cs),
(504,396,o),
(462,506,o),
(347,506,cs),
(261,506,o),
(134,431,o),
(40,325,c),
(57,299,l),
(143,391,o),
(245,456,o),
(304,456,cs),
(382,456,o),
(401,364,o),
(371,255,cs),
(323,81,o),
(208,-13,o),
(136,41,c),
(127,8,l)
);
},
{
closed = 1;
nodes = (
(200,-200,l),
(209,-172,l),
(95,-172,l),
(278,568,l),
(207,562,l),
(16,-172,l),
(-81,-172,l),
(-89,-200,l)
);
}
);
width = 502;
}
);
metricRight = o;
unicode = 112;
},
{
glyphname = q;
lastChange = "2025-02-18 21:22:07 +0000";
layers = (
{
anchors = (
{
name = bottom;
pos = (248,-193);
},
{
name = top;
pos = (264,402);
}
);
layerId = m003;
shapes = (
{
closed = 1;
nodes = (
(116,-15,o),
(227,71,o),
(302,191,c),
(302,242,l),
(235,132,o),
(143,45,o),
(100,45,cs),
(77,45,o),
(80,92,o),
(111,167,cs),
(156,274,o),
(228,347,o),
(289,347,cs),
(304,347,o),
(330,331,o),
(348,318,c),
(385,367,l),
(366,377,o),
(337,379,o),
(319,379,cs),
(206,379,o),
(82,280,o),
(24,140,cs),
(-12,51,o),
(-4,-15,o),
(51,-15,cs)
);
},
{
closed = 1;
nodes = (
(343,-192,l),
(349,-167,l),
(311,-161,o),
(288,-160,o),
(278,-151,cs),
(269,-143,o),
(270,-129,o),
(276,-101,cs),
(391,388,l),
(317,383,l),
(200,-101,ls),
(193,-130,o),
(187,-145,o),
(175,-153,cs),
(157,-165,o),
(133,-162,o),
(97,-167,c),
(91,-192,l)
);
}
);
width = 406;
},
{
associatedMasterId = m003;
background = {
shapes = (
{
closed = 0;
nodes = (
(188,-146,l),
(185,-161,o),
(171,-172,o),
(155,-172,c),
(84,-172,l),
(76,-200,l),
(365,-200,l),
(374,-172,l),
(315,-172,l),
(283,-172,o),
(266,-150,o),
(273,-120,c)
);
}
);
};
layerId = "00B6DBDF-8A79-4760-8C61-E953A7B5EE51";
name = "7. Nov. 24, 00:08";
shapes = (
{
closed = 1;
nodes = (
(368,-200,l),
(377,-172,l),
(363,-172,o),
(351,-172,o),
(334,-172,cs),
(290,-172,o),
(268,-143,o),
(281,-101,c),
(433,396,l),
(441,420,o),
(451,447,o),
(457,459,c),
(443,488,o),
(418,508,o),
(395,508,cs),
(258,508,o),
(100,370,o),
(29,175,cs),
(-10,68,o),
(9,-8,o),
(76,-8,cs),
(137,-8,o),
(244,23,o),
(310,106,c),
(312,139,l),
(264,69,o),
(192,62,o),
(163,62,cs),
(93,62,o),
(65,125,o),
(95,213,cs),
(141,345,o),
(230,439,o),
(309,439,cs),
(347,439,o),
(365,414,o),
(354,379,c),
(196,-142,l),
(191,-160,o),
(165,-172,o),
(134,-172,cs),
(84,-172,l),
(76,-200,l)
);
}
);
width = 431;
}
);
metricWidth = o;
unicode = 113;
},
{
glyphname = r;
lastChange = "2025-02-18 21:22:07 +0000";
layers = (
{
associatedMasterId = m003;
layerId = "D557A137-27E6-4560-890F-F4309894473F";
name = "6. Nov. 24, 23:41";
shapes = (
{
closed = 1;
nodes = (
(97,0,l),
(191,250,o),
(263,448,o),
(232,365,cs),
(263,449,o),
(260,508,o),
(216,508,cs),
(157,508,o),
(79,418,o),
(28,290,c),
(58,290,l),
(94,381,o),
(135,446,o),
(157,446,cs),
(177,446,o),
(173,395,o),
(146,323,cs),
(108,221,o),
(56,87,o),
(22,0,c)
);
},
{
closed = 1;
nodes = (
(195,313,o),
(311,474,o),
(333,474,c),
(347,474,o),
(353,456,o),
(353,424,c),
(353,384,o),
(335,365,o),
(335,343,c),
(335,332,o),
(344,329,o),
(348,329,c),
(380,329,o),
(445,349,o),
(445,418,c),
(445,474,o),
(398,508,o),
(337,508,cs),
(300,508,o),
(191,380,o),
(107,198,c),
(110,160,l)
);
}
);
width = 373;
},
{
anchors = (
{
name = bottom;
pos = (132,0);
},
{
name = top;
pos = (226,402);
}
);
layerId = m003;
name = "Groote Garmont Cursyf";
shapes = (
{
closed = 1;
nodes = (
(58,-9,o),
(96,-6,o),
(120,-7,c),
(139,66,o),
(155,125,o),
(168,173,cs),
(192,263,o),
(203,308,o),
(205,321,cs),
(214,374,o),
(206,414,o),
(175,414,cs),
(136,414,o),
(69,365,o),
(15,299,c),
(37,281,l),
(70,321,o),
(106,350,o),
(124,350,cs),
(135,350,o),
(139,329,o),
(130,290,cs),
(127,272,o),
(90,143,o),
(30,-16,c)
);
},
{
closed = 1;
nodes = (
(173,204,o),
(232,325,o),
(276,325,cs),
(282,325,o),
(288,323,o),
(295,321,cs),
(302,319,o),
(308,318,o),
(313,318,cs),
(330,318,o),
(351,340,o),
(360,370,cs),
(369,395,o),
(355,413,o),
(330,413,cs),
(267,413,o),
(178,281,o),
(110,98,c),
(127,33,l)
);
}
);
width = 358;
}
);
metricWidth = c;
unicode = 114;
},
{
glyphname = s;
lastChange = "2025-02-18 21:22:07 +0000";
layers = (
{
anchors = (
{
name = bottom;
pos = (126,0);
},
{
name = top;
pos = (220,402);
}
);
layerId = m003;
shapes = (
{
closed = 1;
nodes = (
(167,38,o),
(139,13,o),
(112,13,cs),
(79,13,o),
(68,46,o),
(83,96,c),
(88,107,o),
(86,118,o),
(74,118,cs),
(43,118,o),
(17,101,o),
(10,78,cs),
(-7,24,o),
(34,-14,o),
(105,-14,cs),
(171,-14,o),
(234,33,o),
(256,99,cs),
(272,145,o),
(242,176,o),
(210,207,cs),
(175,242,o),
(140,277,o),
(162,340,cs),
(172,368,o),
(193,386,o),
(213,386,cs),
(247,386,o),
(259,349,o),
(242,297,cs),
(238,286,o),
(241,275,o),
(252,275,cs),
(283,275,o),
(309,292,o),
(315,315,cs),
(334,373,o),
(293,413,o),
(220,413,cs),
(159,413,o),
(104,379,o),
(88,332,cs),
(60,253,o),
(101,214,o),
(137,180,cs),
(170,149,o),
(197,124,o),
(180,74,cs)
);
}
);
width = 345;
},
{
associatedMasterId = m003;
background = {
shapes = (
{
closed = 1;
nodes = (
(169,397,l),
(183,445,o),
(210,479,o),
(234,479,cs),
(272,479,o),
(281,429,o),
(256,358,cs),
(250,342,o),
(254,330,o),
(265,330,cs),
(306,330,o),
(344,354,o),
(356,388,cs),
(380,458,o),
(338,507,o),
(255,507,cs),
(177,507,o),
(108,456,o),
(87,383,c)
);
},
{
closed = 1;
nodes = (
(168,104,l),
(148,55,o),
(111,20,o),
(79,20,cs),
(41,20,o),
(32,70,o),
(57,141,cs),
(63,157,o),
(59,169,o),
(48,169,cs),
(7,169,o),
(-31,145,o),
(-43,111,cs),
(-67,41,o),
(-25,-8,o),
(58,-8,cs),
(134,-8,o),
(215,52,o),
(254,137,c)
);
}
);
};
layerId = "EBFBC35F-32CC-450C-9ABA-983167BABF9D";
name = "6. Nov. 24, 21:45";
shapes = (
{
closed = 1;
nodes = (
(-34,45,o),
(-5,-3,o),
(56,-3,cs),
(143,-3,o),
(227,51,o),
(250,128,cs),
(307,313,o),
(134,281,o),
(172,407,cs),
(185,448,o),
(211,477,o),
(235,477,cs),
(266,477,o),
(280,452,o),
(269,416,cs),
(265,404,o),
(271,396,o),
(282,396,cs),
(315,396,o),
(342,408,o),
(347,424,cs),
(362,473,o),
(325,507,o),
(259,507,cs),
(179,507,o),
(114,462,o),
(91,386,cs),
(35,202,o),
(205,224,o),
(169,107,cs),
(156,65,o),
(111,27,o),
(79,27,cs),
(51,27,o),
(44,64,o),
(59,116,cs),
(63,128,o),
(57,137,o),
(45,137,cs),
(15,137,o),
(-9,127,o),
(-13,113,cs)
);
}
);
width = 334;
}
);
metricLeft = o;
metricRight = o;
metricWidth = c;
unicode = 115;
},
{
glyphname = germandbls;
lastChange = "2025-02-18 21:22:07 +0000";
layers = (
{
anchors = (
{
name = bottom;
pos = (179,0);
},
{
name = top;
pos = (373,637);
}
);
layerId = m003;
shapes = (
{
closed = 1;
nodes = (
(-95,-234,o),
(-54,-202,o),
(-15,-164,cs),
(78,-78,o),
(118,68,o),
(135,148,cs),
(142,180,o),
(148,210,o),
(155,241,cs),
(172,323,o),
(188,402,o),
(209,486,cs),
(228,563,o),
(281,609,o),
(323,608,c),
(352,643,l),
(251,645,o),
(144,562,o),
(115,434,cs),
(104,383,o),
(91,318,o),
(79,254,cs),
(63,175,o),
(47,95,o),
(33,32,cs),
(13,-55,o),
(3,-89,o),
(-39,-137,cs),
(-49,-149,o),
(-61,-155,o),
(-70,-155,cs),
(-78,-155,o),
(-81,-151,o),
(-86,-144,cs),
(-90,-138,o),
(-94,-132,o),
(-105,-132,cs),
(-137,-132,o),
(-170,-163,o),
(-179,-205,cs),
(-182,-220,o),
(-167,-234,o),
(-140,-234,cs)
);
},
{
closed = 1;
nodes = (
(331,38,o),
(318,13,o),
(284,13,cs),
(247,13,o),
(232,46,o),
(251,96,c),
(256,106,o),
(253,118,o),
(243,118,cs),
(212,118,o),
(185,101,o),
(177,78,cs),
(156,24,o),
(193,-14,o),
(265,-14,cs),
(344,-14,o),
(398,33,o),
(424,99,cs),
(444,148,o),
(414,179,o),
(385,210,cs),
(353,246,o),
(321,280,o),
(347,340,cs),
(366,387,o),
(391,399,o),
(414,410,cs),
(442,423,o),
(467,436,o),
(467,513,cs),
(467,578,o),
(442,639,o),
(347,643,c),
(318,608,l),
(390,610,o),
(402,551,o),
(402,481,cs),
(402,434,o),
(379,422,o),
(349,407,cs),
(323,394,o),
(292,379,o),
(272,332,cs),
(240,256,o),
(277,216,o),
(310,181,cs),
(339,150,o),
(365,122,o),
(346,74,cs)
);
}
);
width = 479;
}
);
unicode = 223;
},
{
glyphname = t;
lastChange = "2025-02-18 21:22:07 +0000";
layers = (
{
anchors = (
{
name = bottom;
pos = (95,0);
},
{
name = center;
pos = (142,201);
},
{
name = top;
pos = (215,507);
},
{
name = topright;
pos = (367,637);
}
);
layerId = m003;
shapes = (
{
closed = 1;
nodes = (
(111,-14,o),
(176,32,o),
(228,95,c),
(205,114,l),
(172,74,o),
(137,45,o),
(121,45,cs),
(108,45,o),
(105,87,o),
(122,151,cs),
(137,211,o),
(153,275,o),
(170,335,cs),
(190,406,o),
(220,467,o),
(232,507,c),
(201,493,o),
(169,489,o),
(139,487,c),
(106,365,o),
(74,242,o),
(38,121,cs),
(14,41,o),
(34,-14,o),
(73,-14,cs)
);
},
{
closed = 1;
nodes = (
(273,357,l),
(288,406,l),
(108,402,l),
(24,382,l),
(20,369,l)
);
}
);
width = 278;
}
);
metricWidth = i;
unicode = 116;
},
{
glyphname = u;
lastChange = "2025-02-18 21:22:07 +0000";
layers = (
{
anchors = (
{
name = bottom;
pos = (184,0);
},
{
name = ogonek;
pos = (374,10);
},
{
name = top;
pos = (278,402);
},
{
name = topright;
pos = (492,402);
}
);
background = {
shapes = (
{
closed = 1;
nodes = (
(43,-2,o),
(70,2,o),
(96,4,c),
(180,264,o),
(217,395,o),
(221,413,cs),
(236,479,o),
(231,508,o),
(194,508,cs),
(154,508,o),
(110,466,o),
(36,372,c),
(58,350,l),
(92,399,o),
(125,427,o),
(139,427,cs),
(156,427,o),
(144,368,o),
(129,319,cs),
(64,110,o),
(35,37,o),
(17,-7,c)
);
},
{
closed = 1;
nodes = (
(334,-10,o),
(387,36,o),
(457,122,c),
(437,144,l),
(397,94,o),
(357,57,o),
(341,57,cs),
(326,57,o),
(345,108,o),
(376,184,c),
(437,338,l),
(476,437,o),
(489,510,o),
(433,510,cs),
(363,510,o),
(217,372,o),
(132,181,c),
(106,66,l),
(181,251,o),
(321,434,o),
(382,434,cs),
(401,434,o),
(383,388,o),
(353,308,c),
(275,116,l),
(232,7,o),
(262,-10,o),
(295,-10,cs)
);
}
);
};
layerId = m003;
shapes = (
{
closed = 1;
nodes = (
(427,412,o),
(396,408,o),
(359,404,c),
(342,347,o),
(327,297,o),
(314,254,cs),
(276,131,o),
(254,57,o),
(251,30,cs),
(249,-3,o),
(265,-15,o),
(297,-15,cs),
(327,-15,o),
(388,32,o),
(438,95,c),
(414,116,l),
(382,73,o),
(346,43,o),
(331,43,cs),
(326,43,o),
(333,92,o),
(354,152,cs),
(424,358,o),
(458,469,o),
(434,413,c)
);
},
{
closed = 1;
nodes = (
(132,415,o),
(76,366,o),
(28,300,c),
(53,279,l),
(82,319,o),
(119,359,o),
(136,359,cs),
(144,359,o),
(136,315,o),
(113,258,cs),
(62,129,ls),
(31,46,o),
(41,-15,o),
(87,-15,cs),
(167,-15,o),
(272,97,o),
(340,256,c),
(361,374,l),
(293,186,o),
(195,51,o),
(141,51,cs),
(119,51,o),
(127,92,o),
(147,153,cs),
(154,176,o),
(163,201,o),
(172,223,cs),
(188,265,o),
(204,308,o),
(212,353,cs),
(219,401,o),
(200,415,o),
(165,415,cs)
);
}
);
width = 462;
},
{
associatedMasterId = m003;
layerId = "ABB09411-EC44-4418-BAB9-7685FF2C341E";
name = "6. Nov. 24, 23:15";
shapes = (
{
closed = 1;
nodes = (
(418,509,l),
(324,259,o),
(246,61,o),
(277,144,c),
(244,56,o),
(247,-7,o),
(284,-7,cs),
(348,-7,o),
(432,87,o),
(485,219,c),
(455,219,l),
(424,141,o),
(381,86,o),
(352,86,cs),
(340,86,o),
(347,127,o),
(369,186,cs),
(395,258,o),
(447,391,o),
(493,509,c)
);
},
{
closed = 1;
nodes = (
(159,517,o),
(75,423,o),
(22,291,c),
(52,291,l),
(83,369,o),
(126,424,o),
(155,424,cs),
(167,424,o),
(163,383,o),
(138,324,c),
(63,150,l),
(24,60,o),
(42,-7,o),
(94,-7,cs),
(151,-7,o),
(247,87,o),
(327,221,c),
(327,264,l),
(268,159,o),
(177,77,o),
(138,77,cs),
(114,77,o),
(131,134,o),
(160,201,c),
(230,366,l),
(267,453,o),
(260,517,o),
(223,517,cs)
);
}
);
width = 495;
}
);
metricLeft = n;
metricRight = n;
metricWidth = n;
unicode = 117;
},
{
glyphname = v;
lastChange = "2025-02-18 21:22:07 +0000";
layers = (
{
anchors = (
{
name = bottom;
pos = (156,0);
},
{
name = top;
pos = (250,402);
}
);
layerId = m003;
shapes = (
{
closed = 1;
nodes = (
(220,-14,o),
(309,91,o),
(355,224,cs),
(394,339,o),
(374,423,o),
(305,423,cs),
(281,423,o),
(258,406,o),
(251,383,cs),
(244,364,o),
(249,347,o),
(266,347,cs),
(316,347,o),
(329,281,o),
(297,183,cs),
(271,107,o),
(221,44,o),
(174,44,cs),
(126,44,o),
(112,108,o),
(143,204,cs),
(160,254,o),
(172,269,o),
(185,284,cs),
(196,296,o),
(205,305,o),
(213,333,c),
(222,380,o),
(199,414,o),
(161,414,cs),
(133,414,o),
(75,366,o),
(20,300,c),
(46,279,l),
(71,316,o),
(101,343,o),
(116,343,cs),
(137,343,o),
(150,309,o),
(129,258,cs),
(125,247,o),
(112,228,o),
(100,209,cs),
(84,186,o),
(65,158,o),
(60,140,cs),
(31,52,o),
(64,-14,o),
(139,-14,cs)
);
}
);
width = 405;
}
);
metricWidth = o;
unicode = 118;
},
{
glyphname = w;
lastChange = "2025-02-18 21:22:07 +0000";
layers = (
{
anchors = (
{
name = bottom;
pos = (242,0);
},
{
name = top;
pos = (336,402);
}
);
background = {
shapes = (
{
closed = 1;
nodes = (
(206,-12,o),
(301,82,o),
(356,215,cs),
(403,330,o),
(389,411,o),
(322,411,cs),
(299,411,o),
(276,395,o),
(267,372,cs),
(259,353,o),
(263,339,o),
(278,339,cs),
(330,339,o),
(338,270,o),
(299,172,cs),
(268,96,o),
(213,42,o),
(165,42,cs),
(115,42,o),
(105,109,o),
(143,205,cs),
(179,296,o),
(201,275,o),
(222,334,c),
(234,380,o),
(215,412,o),
(178,412,cs),
(151,412,o),
(91,366,o),
(32,300,c),
(53,282,l),
(81,319,o),
(113,345,o),
(128,345,cs),
(151,345,o),
(161,308,o),
(137,257,cs),
(125,231,o),
(72,172,o),
(59,139,cs),
(24,51,o),
(52,-12,o),
(126,-12,cs)
);
}
);
};
layerId = m003;
shapes = (
{
closed = 1;
nodes = (
(403,-14,o),
(483,91,o),
(528,224,cs),
(567,339,o),
(547,423,o),
(478,423,cs),
(454,423,o),
(432,406,o),
(424,383,cs),
(416,362,o),
(423,347,o),
(439,347,cs),
(492,347,o),
(507,281,o),
(474,183,cs),
(449,107,o),
(388,30,o),
(339,30,cs),
(314,30,o),
(291,40,o),
(283,54,c),
(320,87,o),
(436,348,o),
(341,348,cs),
(269,348,o),
(183,125,o),
(230,47,c),
(222,39,o),
(200,37,o),
(192,37,cs),
(139,37,o),
(121,108,o),
(152,204,cs),
(169,253,o),
(182,271,o),
(194,286,cs),
(205,300,o),
(215,311,o),
(223,338,cs),
(231,368,o),
(210,413,o),
(168,413,cs),
(119,413,o),
(95,382,o),
(57,334,cs),
(49,323,o),
(39,311,o),
(29,300,c),
(55,279,l),
(80,316,o),
(102,345,o),
(125,345,cs),
(157,345,o),
(149,300,o),
(138,258,cs),
(134,245,o),
(121,225,o),
(106,204,cs),
(91,182,o),
(73,158,o),
(68,140,cs),
(38,50,o),
(75,-14,o),
(156,-14,cs),
(180,-14,o),
(214,1,o),
(242,24,c),
(261,2,o),
(288,-14,o),
(322,-14,cs)
);
},
{
closed = 1;
nodes = (
(243,130,o),
(256,291,o),
(320,291,cs),
(391,291,o),
(293,119,o),
(268,83,c)
);
}
);
width = 578;
},
{
associatedMasterId = m003;
layerId = "5A38C2F5-2BB2-4579-8BD4-F84C47CF3AA8";
name = "6. Nov. 24, 23:46";
shapes = (
{
closed = 1;
nodes = (
(433,-7,o),
(532,107,o),
(582,268,cs),
(624,408,o),
(610,507,o),
(548,507,cs),
(519,507,o),
(492,485,o),
(483,455,cs),
(474,428,o),
(479,409,o),
(496,409,cs),
(548,409,o),
(561,329,o),
(527,216,cs),
(500,129,o),
(442,67,o),
(388,67,cs),
(372,67,o),
(351,78,o),
(338,93,c),
(359,115,o),
(386,170,o),
(402,224,cs),
(424,295,o),
(413,345,o),
(374,345,cs),
(317,345,o),
(258,275,o),
(231,176,cs),
(223,145,o),
(223,103,o),
(233,74,c),
(222,70,o),
(203,67,o),
(188,67,cs),
(133,67,o),
(118,145,o),
(153,256,cs),
(187,367,o),
(239,424,o),
(253,469,cs),
(260,491,o),
(242,507,o),
(209,507,cs),
(135,507,o),
(62,463,o),
(33,400,cs),
(0,331,l),
(41,338,l),
(63,384,ls),
(71,401,o),
(96,413,o),
(123,413,cs),
(151,413,o),
(164,390,o),
(154,357,cs),
(144,324,o),
(74,216,o),
(61,176,cs),
(29,69,o),
(63,-7,o),
(143,-7,cs),
(174,-7,o),
(220,10,o),
(252,35,c),
(272,10,o),
(309,-7,o),
(343,-7,cs)
);
},
{
closed = 1;
nodes = (
(296,149,o),
(293,207,o),
(313,266,cs),
(322,288,o),
(339,304,o),
(354,304,cs),
(379,304,o),
(381,259,o),
(358,196,cs),
(349,169,o),
(333,140,o),
(320,127,c)
);
}
);
width = 630;
}
);
unicode = 119;
},
{
glyphname = x;
lastChange = "2025-02-18 21:22:07 +0000";
layers = (
{
anchors = (
{
name = bottom;
pos = (149,0);
},
{
name = top;
pos = (271,402);
}
);
background = {
shapes = (
{
closed = 0;
nodes = (
(190,334,ls),
(204,388,o),
(199,412,o),
(165,412,cs),
(128,412,o),
(88,377,o),
(19,300,c),
(40,282,l),
(71,322,o),
(101,345,o),
(114,345,cs),
(130,345,o),
(119,297,o),
(105,257,cs)
);
}
);
};
layerId = m003;
shapes = (
{
closed = 1;
nodes = (
(64,-9,o),
(155,113,o),
(225,207,cs),
(277,277,o),
(323,337,o),
(337,337,cs),
(364,337,o),
(385,324,o),
(384,304,c),
(436,366,l),
(422,394,o),
(399,414,o),
(382,414,cs),
(347,414,o),
(251,290,o),
(175,192,cs),
(124,126,o),
(82,72,o),
(73,72,cs),
(61,72,o),
(46,87,o),
(39,106,c),
(-23,59,l),
(-13,20,o),
(5,-9,o),
(19,-9,cs)
);
},
{
closed = 1;
nodes = (
(290,-9,o),
(356,35,o),
(408,95,c),
(387,116,l),
(350,74,o),
(313,49,o),
(292,49,cs),
(283,49,o),
(269,113,o),
(256,188,cs),
(237,291,o),
(214,414,o),
(180,414,cs),
(148,414,o),
(82,366,o),
(23,300,c),
(47,279,l),
(76,317,o),
(113,344,o),
(132,344,cs),
(145,344,o),
(157,284,o),
(169,213,cs),
(186,112,o),
(207,-9,o),
(252,-9,cs)
);
}
);
width = 419;
}
);
unicode = 120;
},
{
glyphname = y;
lastChange = "2025-02-18 21:22:07 +0000";
layers = (
{
anchors = (
{
name = bottom;
pos = (149,0);
},
{
name = top;
pos = (243,402);
}
);
background = {
shapes = (
{
closed = 0;
nodes = (
(81,132,ls),
(38,-54,o),
(2,-185,o),
(-34,-185,cs),
(-65,-185,o),
(-75,-144,o),
(-58,-86,cs),
(-53,-73,o),
(-57,-63,o),
(-67,-63,cs),
(-101,-63,o),
(-130,-83,o),
(-138,-111,cs),
(-155,-168,o),
(-119,-208,o),
(-51,-208,cs),
(37,-208,o),
(114,-60,o),
(162,149,cs)
);
},
{
closed = 0;
nodes = (
(180,334,ls),
(194,388,o),
(189,412,o),
(155,412,cs),
(118,412,o),
(78,377,o),
(9,300,c),
(30,282,l),
(61,322,o),
(91,345,o),
(104,345,cs),
(120,345,o),
(109,297,o),
(95,257,cs)
);
}
);
};
layerId = m003;
shapes = (
{
closed = 1;
nodes = (
(36,-178,o),
(115,-89,o),
(212,50,cs),
(276,142,o),
(340,256,o),
(371,372,cs),
(379,396,o),
(354,414,o),
(318,414,cs),
(287,414,o),
(264,393,o),
(266,366,cs),
(266,362,o),
(271,351,o),
(274,346,cs),
(303,297,o),
(263,177,o),
(179,60,cs),
(85,-72,o),
(5,-145,o),
(-18,-145,cs),
(-39,-145,o),
(-57,-124,o),
(-45,-86,cs),
(-37,-65,o),
(-43,-55,o),
(-54,-55,cs),
(-85,-55,o),
(-112,-72,o),
(-119,-95,cs),
(-134,-145,o),
(-93,-178,o),
(-27,-178,cs)
);
},
{
closed = 1;
nodes = (
(26,279,l),
(54,320,o),
(90,349,o),
(113,349,cs),
(142,349,o),
(142,137,o),
(118,-28,c),
(179,24,l),
(211,217,o),
(217,414,o),
(131,414,cs),
(102,414,o),
(48,366,o),
(0,300,c)
);
}
);
width = 403;
}
);
metricWidth = c;
unicode = 121;
},
{
glyphname = z;
lastChange = "2025-02-18 21:22:07 +0000";
layers = (
{
anchors = (
{
name = bottom;
pos = (141,0);
},
{
name = center;
pos = (188,201);
},
{
name = top;
pos = (235,402);
}
);
layerId = m003;
shapes = (
{
closed = 1;
nodes = (
(375,399,l),
(351,415,l),
(-17,-3,l),
(10,-19,l)
);
},
{
closed = 1;
nodes = (
(31,-5,o),
(60,9,o),
(89,9,cs),
(95,9,o),
(106,5,o),
(121,0,cs),
(143,-8,o),
(171,-18,o),
(194,-18,cs),
(241,-18,o),
(291,14,o),
(313,57,cs),
(348,130,l),
(326,138,l),
(299,92,ls),
(286,68,o),
(246,53,o),
(217,53,cs),
(206,53,o),
(189,59,o),
(171,65,cs),
(151,72,o),
(128,80,o),
(111,80,cs),
(63,80,o),
(10,36,o),
(-17,-4,c),
(17,-24,l)
);
},
{
closed = 1;
nodes = (
(82,304,ls),
(94,328,o),
(130,343,o),
(155,343,cs),
(165,343,o),
(182,337,o),
(199,331,cs),
(218,324,o),
(240,316,o),
(255,316,cs),
(300,316,o),
(341,352,o),
(375,399,c),
(344,420,l),
(332,401,o),
(302,387,o),
(276,387,cs),
(271,387,o),
(260,391,o),
(246,396,cs),
(225,404,o),
(197,414,o),
(176,414,cs),
(133,414,o),
(85,382,o),
(65,339,cs),
(32,266,l),
(57,258,l)
);
}
);
width = 376;
}
);
unicode = 122;
},
{
glyphname = zero;
lastChange = "2025-02-18 21:22:07 +0000";
layers = (
{
hints = (
{
horizontal = 1;
place = (406,34);
type = Stem;
},
{
horizontal = 1;
place = (-16,34);
type = Stem;
},
{
place = (398,81);
type = Stem;
},
{
place = (30,81);
type = Stem;
}
);
layerId = m003;
shapes = (
{
closed = 1;
nodes = (
(320,-16,o),
(434,84,o),
(467,225,cs),
(497,354,o),
(428,446,o),
(300,446,cs),
(175,446,o),
(65,354,o),
(35,225,cs),
(2,84,o),
(67,-16,o),
(193,-16,cs)
);
},
{
closed = 1;
nodes = (
(252,17,o),
(166,52,o),
(121,148,cs),
(81,234,o),
(100,324,o),
(166,365,cs),
(245,413,o),
(329,385,o),
(368,298,cs),
(412,202,o),
(396,105,o),
(328,63,cs)
);
}
);
width = 498;
}
);
unicode = 48;
},
{
glyphname = one;
lastChange = "2025-02-18 21:22:07 +0000";
layers = (
{
hints = (
{
horizontal = 1;
place = (407,30);
type = Stem;
},
{
horizontal = 1;
place = (-8,31);
type = Stem;
},
{
place = (115,72);
type = Stem;
}
);
layerId = m003;
shapes = (
{
closed = 1;
nodes = (
(234,-5,l),
(239,19,l),
(222,23,o),
(200,32,o),
(191,40,cs),
(179,51,o),
(173,77,o),
(178,98,cs),
(185,132,o),
(202,204,o),
(219,279,cs),
(231,331,o),
(253,405,o),
(268,446,c),
(74,396,l),
(68,368,l),
(124,368,o),
(162,344,o),
(155,313,cs),
(141,252,o),
(107,102,o),
(101,79,cs),
(99,70,o),
(83,54,o),
(65,43,cs),
(52,34,o),
(23,24,o),
(0,20,c),
(-6,-5,l)
);
}
);
width = 300;
}
);
unicode = 49;
},
{
glyphname = two;
lastChange = "2025-02-18 21:22:07 +0000";
layers = (
{
hints = (
{
horizontal = 1;
place = (384,58);
type = Stem;
},
{
horizontal = 1;
place = (-8,62);
type = Stem;
},
{
place = (243,89);
type = Stem;
}
);
layerId = m003;
shapes = (
{
closed = 1;
nodes = (
(331,-5,l),
(402,94,l),
(283,74,o),
(167,63,o),
(53,63,c),
(49,36,l),
(228,158,o),
(366,239,o),
(386,326,cs),
(406,413,o),
(354,446,o),
(279,446,cs),
(205,446,o),
(132,396,o),
(96,355,c),
(118,335,l),
(158,366,o),
(202,384,o),
(229,384,cs),
(276,384,o),
(301,349,o),
(292,310,cs),
(280,258,o),
(212,189,o),
(124,126,cs),
(-32,13,l),
(-30,-5,l)
);
}
);
width = 444;
}
);
unicode = 50;
},
{
glyphname = three;
lastChange = "2025-02-18 21:22:07 +0000";
layers = (
{
hints = (
{
horizontal = 1;
place = (379,59);
type = Stem;
},
{
horizontal = 1;
place = (137,44);
type = Stem;
},
{
horizontal = 1;
place = (-246,74);
type = Stem;
},
{
place = (209,85);
type = Stem;
}
);
layerId = m003;
shapes = (
{
closed = 1;
nodes = (
(93,-199,o),
(244,-63,o),
(274,64,cs),
(290,135,o),
(257,185,o),
(193,185,cs),
(167,185,o),
(129,176,o),
(101,164,cs),
(130,179,o),
(108,175,o),
(48,156,c),
(57,126,l),
(75,134,o),
(102,140,o),
(122,140,cs),
(175,140,o),
(203,96,o),
(189,33,cs),
(169,-50,o),
(54,-154,o),
(-85,-205,c),
(-85,-238,l)
);
},
{
closed = 1;
nodes = (
(70,133,o),
(95,160,o),
(119,171,cs),
(218,216,o),
(307,292,o),
(322,354,cs),
(334,408,o),
(292,446,o),
(235,446,cs),
(190,446,o),
(121,411,o),
(67,361,c),
(78,339,l),
(112,365,o),
(163,384,o),
(190,384,cs),
(220,384,o),
(236,359,o),
(228,324,cs),
(217,277,o),
(143,208,o),
(48,156,c),
(57,126,l)
);
}
);
width = 336;
}
);
unicode = 51;
},
{
glyphname = four;
lastChange = "2025-02-18 21:22:07 +0000";
layers = (
{
hints = (
{
horizontal = 1;
place = (-8,51);
type = Stem;
},
{
horizontal = 1;
place = (412,21);
target = up;
type = BottomGhost;
},
{
place = (305,74);
type = Stem;
}
);
layerId = m003;
shapes = (
{
closed = 1;
nodes = (
(287,-205,l),
(336,8,o),
(385,222,o),
(439,435,c),
(394,435,l),
(-15,53,l),
(-25,9,l),
(122,9,o),
(268,3,o),
(414,-1,c),
(431,75,l),
(294,72,o),
(155,69,o),
(18,69,c),
(14,38,l),
(377,374,l),
(345,352,l),
(292,166,o),
(253,-5,o),
(207,-205,c)
);
}
);
width = 480;
}
);
unicode = 52;
},
{
glyphname = five;
lastChange = "2025-02-18 21:22:07 +0000";
layers = (
{
hints = (
{
horizontal = 1;
place = (368,65);
type = Stem;
},
{
place = (184,74);
type = Stem;
}
);
layerId = m003;
shapes = (
{
closed = 1;
nodes = (
(85,-184,o),
(228,-59,o),
(255,58,cs),
(278,156,o),
(209,257,o),
(90,302,c),
(81,269,l),
(165,406,l),
(117,363,l),
(200,368,o),
(281,364,o),
(360,353,c),
(415,435,l),
(151,435,l),
(41,252,l),
(136,187,o),
(192,94,o),
(176,26,cs),
(158,-53,o),
(44,-147,o),
(-101,-208,c),
(-92,-243,l)
);
}
);
width = 372;
}
);
unicode = 53;
},
{
glyphname = six;
lastChange = "2025-02-18 21:22:07 +0000";
layers = (
{
hints = (
{
horizontal = 1;
place = (309,47);
type = Stem;
},
{
horizontal = 1;
place = (-13,33);
type = Stem;
},
{
horizontal = 1;
place = (677,21);
target = up;
type = BottomGhost;
},
{
place = (343,77);
type = Stem;
},
{
place = (33,84);
type = Stem;
}
);
layerId = m003;
shapes = (
{
closed = 1;
nodes = (
(293,-16,o),
(396,69,o),
(424,190,cs),
(448,294,o),
(390,368,o),
(291,368,cs),
(255,368,o),
(210,352,o),
(183,330,c),
(194,307,l),
(208,316,o),
(232,323,o),
(250,323,cs),
(321,323,o),
(356,258,o),
(334,166,cs),
(315,83,o),
(256,24,o),
(192,24,cs),
(125,24,o),
(100,124,o),
(132,265,cs),
(171,434,o),
(351,592,o),
(570,661,c),
(564,705,l),
(302,621,o),
(86,428,o),
(41,233,cs),
(7,87,o),
(66,-16,o),
(183,-16,cs)
);
}
);
width = 462;
}
);
unicode = 54;
},
{
glyphname = seven;
lastChange = "2025-02-18 21:22:07 +0000";
layers = (
{
hints = (
{
horizontal = 1;
place = (367,63);
type = Stem;
}
);
layerId = m003;
shapes = (
{
closed = 1;
nodes = (
(18,-249,l),
(536,439,l),
(115,439,l),
(52,339,l),
(188,356,o),
(322,366,o),
(455,367,c),
(454,405,l),
(-17,-218,l)
);
}
);
width = 462;
}
);
unicode = 55;
},
{
glyphname = eight;
lastChange = "2025-02-18 21:22:07 +0000";
layers = (
{
hints = (
{
horizontal = 1;
place = (651,44);
type = Stem;
},
{
horizontal = 1;
place = (-17,35);
type = Stem;
},
{
place = (299,61);
type = Stem;
},
{
place = (24,70);
type = Stem;
}
);
layerId = m003;
shapes = (
{
closed = 1;
nodes = (
(263,-16,o),
(355,54,o),
(379,154,c),
(414,308,o),
(164,378,o),
(192,498,cs),
(207,565,o),
(253,611,o),
(306,611,c),
(314,647,l),
(220,647,o),
(137,573,o),
(113,469,cs),
(76,308,o),
(325,227,o),
(302,126,c),
(288,64,o),
(231,20,o),
(164,20,c),
(155,-16,l)
);
},
{
closed = 1;
nodes = (
(164,20,l),
(103,20,o),
(72,72,o),
(89,146,cs),
(103,206,o),
(160,272,o),
(228,308,c),
(203,323,l),
(108,276,o),
(30,197,o),
(12,119,cs),
(-6,40,o),
(53,-16,o),
(155,-16,c)
);
},
{
closed = 1;
nodes = (
(306,611,l),
(367,611,o),
(388,559,o),
(371,485,cs),
(357,426,o),
(302,368,o),
(234,332,c),
(259,317,l),
(354,364,o),
(429,435,o),
(447,512,cs),
(466,592,o),
(416,647,o),
(314,647,c)
);
}
);
width = 426;
}
);
unicode = 56;
},
{
glyphname = nine;
lastChange = "2025-02-18 21:22:07 +0000";
layers = (
{
hints = (
{
horizontal = 1;
place = (403,34);
type = Stem;
},
{
horizontal = 1;
place = (74,48);
type = Stem;
},
{
place = (327,84);
type = Stem;
},
{
place = (29,76);
type = Stem;
}
);
layerId = m003;
shapes = (
{
closed = 1;
nodes = (
(176,446,o),
(75,368,o),
(49,257,cs),
(27,161,o),
(87,94,o),
(186,94,cs),
(222,94,o),
(266,108,o),
(293,128,c),
(281,149,l),
(268,141,o),
(244,135,o),
(226,135,cs),
(155,135,o),
(119,194,o),
(138,279,cs),
(156,355,o),
(214,409,o),
(278,409,cs),
(345,409,o),
(372,317,o),
(342,188,cs),
(307,33,o),
(124,-139,o),
(-94,-203,c),
(-87,-243,l),
(173,-166,o),
(392,38,o),
(433,217,cs),
(464,351,o),
(403,446,o),
(286,446,cs)
);
}
);
width = 462;
}
);
unicode = 57;
},
{
glyphname = period;
lastChange = "2025-02-18 21:22:07 +0000";
layers = (
{
layerId = m003;
shapes = (
{
closed = 1;
nodes = (
(103,-4,o),
(129,28,o),
(129,67,cs),
(129,106,o),
(103,138,o),
(71,138,cs),
(39,138,o),
(13,106,o),
(13,67,cs),
(13,28,o),
(39,-4,o),
(71,-4,cs)
);
}
);
width = 234;
}
);
unicode = 46;
},
{
glyphname = comma;
lastChange = "2025-02-18 21:22:07 +0000";
layers = (
{
layerId = m003;
shapes = (
{
closed = 1;
nodes = (
(72,-152,o),
(139,-70,o),
(153,-11,cs),
(174,83,o),
(146,149,o),
(82,149,cs),
(48,149,o),
(18,127,o),
(11,95,cs),
(3,57,o),
(17,30,o),
(45,30,cs),
(89,30,o),
(112,-7,o),
(100,-59,cs),
(93,-88,o),
(44,-142,o),
(-18,-187,c),
(-8,-208,l)
);
}
);
width = 278;
}
);
unicode = 44;
},
{
glyphname = colon;
lastChange = "2025-02-18 21:22:07 +0000";
layers = (
{
layerId = m003;
shapes = (
{
closed = 1;
nodes = (
(194,340,o),
(234,357,o),
(247,387,cs),
(260,415,o),
(240,445,o),
(204,453,cs),
(168,461,o),
(128,444,o),
(116,415,cs),
(103,386,o),
(122,356,o),
(159,348,c)
);
},
{
closed = 1;
nodes = (
(106,0,o),
(146,17,o),
(159,47,cs),
(171,75,o),
(151,105,o),
(116,113,cs),
(80,121,o),
(40,104,o),
(27,75,cs),
(14,46,o),
(33,16,o),
(71,8,c)
);
}
);
width = 266;
}
);
unicode = 58;
},
{
glyphname = semicolon;
lastChange = "2025-02-18 21:22:07 +0000";
layers = (
{
layerId = m003;
shapes = (
{
closed = 1;
nodes = (
(62,-103,o),
(134,-45,o),
(165,7,cs),
(213,90,o),
(211,162,o),
(159,183,cs),
(131,193,o),
(101,181,o),
(84,152,cs),
(64,119,o),
(67,89,o),
(91,80,cs),
(126,66,o),
(142,23,o),
(115,-23,cs),
(99,-49,o),
(41,-85,o),
(-24,-109,c),
(-23,-132,l)
);
},
{
closed = 1;
nodes = (
(194,340,o),
(234,357,o),
(247,387,cs),
(260,415,o),
(240,445,o),
(204,453,cs),
(168,461,o),
(128,444,o),
(116,415,cs),
(103,386,o),
(122,356,o),
(159,348,c)
);
}
);
width = 293;
}
);
unicode = 59;
},
{
glyphname = hyphen;
lastChange = "2025-02-18 21:22:07 +0000";
layers = (
{
layerId = m003;
shapes = (
{
closed = 1;
nodes = (
(321,223,l),
(348,285,l),
(84,285,l),
(57,223,l)
);
}
);
width = 392;
}
);
unicode = 45;
},
{
glyphname = dieresiscomb;
lastChange = "2025-02-18 21:22:07 +0000";
layers = (
{
anchors = (
{
name = _top;
pos = (217,435);
},
{
name = top;
pos = (294,703);
}
);
layerId = m003;
shapes = (
{
closed = 1;
nodes = (
(204,561,o),
(224,586,o),
(224,617,cs),
(224,648,o),
(204,673,o),
(179,673,cs),
(153,673,o),
(133,648,o),
(133,617,cs),
(133,586,o),
(153,561,o),
(179,561,cs)
);
},
{
closed = 1;
nodes = (
(361,561,o),
(381,586,o),
(381,617,cs),
(381,648,o),
(361,673,o),
(335,673,cs),
(310,673,o),
(290,648,o),
(290,617,cs),
(290,586,o),
(310,561,o),
(335,561,cs)
);
}
);
width = 296;
}
);
unicode = 776;
},
